<svg xmlns="http://www.w3.org/2000/svg" xmlns:xlink="http://www.w3.org/1999/xlink" viewBox="0 0 539.35 666.71"><defs><style>.cls-1,.cls-12,.cls-21,.cls-4,.cls-6{fill:#fff;}.cls-1{filter:url(#luminosity-invert-noclip);}.cls-2{isolation:isolate;}.cls-3{fill:#3d200c;}.cls-5,.cls-7,.cls-8{fill:#936342;}.cls-6,.cls-7{opacity:0.2;}.cls-12,.cls-20,.cls-6{mix-blend-mode:overlay;}.cls-11,.cls-17,.cls-19,.cls-7,.cls-8{mix-blend-mode:multiply;}.cls-17,.cls-8{opacity:0.35;}.cls-9{fill:#fff3ee;}.cls-10,.cls-11{fill:#ffa624;}.cls-11,.cls-15{opacity:0.4;}.cls-12{opacity:0.3;}.cls-13{fill:none;stroke:#3d200c;stroke-miterlimit:10;stroke-width:2.5px;}.cls-14,.cls-21{opacity:0.45;}.cls-16{mask:url(#mask);}.cls-18,.cls-19,.cls-20{fill:#acaeaf;}.cls-19{opacity:0.5;}.cls-20{opacity:0.6;}.cls-21{mix-blend-mode:screen;}</style><filter id="luminosity-invert-noclip" x="83.52" y="143.04" width="294.01" height="158.39" filterUnits="userSpaceOnUse" color-interpolation-filters="sRGB"><feColorMatrix values="-1 0 0 0 1 0 -1 0 0 1 0 0 -1 0 1 0 0 0 1 0" result="invert"/><feFlood flood-color="#fff" result="bg"/><feBlend in="invert" in2="bg"/></filter><mask id="mask" x="83.52" y="143.04" width="294.01" height="158.39" maskUnits="userSpaceOnUse"><path class="cls-1" d="M241.1,262.88a38.43,38.43,0,0,0-19.4-17.29l-.23-.1-.18.18A90.75,90.75,0,0,0,212,256.52l-.1.12c-.24.38-.5.76-.74,1.08l-.13.14v0c-4.22,6.26-6.51,12.18-7,18.11a28.59,28.59,0,0,0,.69,9,29.4,29.4,0,0,0,3.66,8.79,29.79,29.79,0,0,0,6.43,7.4l.26.21.24-.24a44,44,0,0,0,7.19-9.39l.17.09a31,31,0,0,0,19.36-1.57A21.25,21.25,0,0,0,244.5,289l.14-.09,0-.16A38.63,38.63,0,0,0,241.1,262.88Z"/></mask></defs><g class="cls-2"><g id="Layer_1" data-name="Layer 1"><path class="cls-3" d="M340.47,524.38c-2.24,0-4.56-.1-6.88-.3-8-.66-16.25-2.35-26.85-5.48l-.78-.23a10.28,10.28,0,0,0-2.08-.5h-.24a9.68,9.68,0,0,0-2.33.46l-.1,0a49.33,49.33,0,0,1-6.91,1.33,53.61,53.61,0,0,1-6.11.35,57,57,0,0,1-7.88-.56,63.62,63.62,0,0,1-6.84-1.36l-1.25-.33a4.08,4.08,0,0,1-.77-.3,3.56,3.56,0,0,1-1.38-1.21,4.11,4.11,0,0,1-.58-1.49,9,9,0,0,1,.44-4.07l.05-.18a32.73,32.73,0,0,1,1.33-3.38,25.4,25.4,0,0,1,1.73-3.21,26.47,26.47,0,0,1,3-3.9,5.53,5.53,0,0,1-1.35-1.47,5,5,0,0,1-.82-2.78,5.52,5.52,0,0,1,.74-2.61,13.67,13.67,0,0,1,2.58-3.1l.2-.19c.32-.31.65-.6,1-.9-3.07.23-6.14.28-9.05.32-3.28,0-6.57.06-9.85.06-4.56,0-9,0-13.24-.13-7.31-.15-14.87-.48-23.1-1-4-.24-7.89-.6-11.53-1-2.37-.22-4.91-.51-7.9-.88.34.6.64,1.18.9,1.75,1,.13,2,.23,3.06.34a71.07,71.07,0,0,1,7.05,1,44.42,44.42,0,0,1,5.76,1.57,15.75,15.75,0,0,1,5.48,3.18,14,14,0,0,1,2.11,2.43,27.36,27.36,0,0,1,1.57,2.69,40,40,0,0,1,2.23,5.57c.61,2,1.15,3.93,1.6,5.56l.09.33a5.21,5.21,0,0,1,.13.67,3.82,3.82,0,0,1-.06,1.35,4.12,4.12,0,0,1-1.44,2.3,4.26,4.26,0,0,1-1.18.66l-.3.09-2,.49A70.25,70.25,0,0,1,213,518.21a60.86,60.86,0,0,1-7.7-.49,59,59,0,0,1-5.84-1.06c-.65-.14-1.32-.33-2-.51l-.86-.23-.52-.16a14,14,0,0,0-2-.49,4.3,4.3,0,0,0-.62,0,6.6,6.6,0,0,0-1.5.2c-.53.13-1.1.29-1.68.45l-1,.28c-1.85.5-3.71,1-5.58,1.45a150.6,150.6,0,0,1-22.84,4.06c-3,.28-6.05.42-9,.42a85.17,85.17,0,0,1-14.38-1.19c-1.76-.29-3.64-.69-5.75-1.23-.95-.23-1.9-.51-2.84-.78A5.85,5.85,0,0,1,127,518a5.32,5.32,0,0,1-1.28-1.27c-2.79.26-5.61.39-8.38.39a87.05,87.05,0,0,1-11.8-.8,36.37,36.37,0,0,1-5.64-1.12A14.86,14.86,0,0,1,97,514a7.15,7.15,0,0,1-1.52-1.13,4.78,4.78,0,0,1-1.38-4.26,7,7,0,0,1,.59-1.82,16.26,16.26,0,0,1,1.62-2.55c1-1.32,2-2.67,3.35-4.42a58.76,58.76,0,0,1,7.64-8.14,40.24,40.24,0,0,1,9.45-6.08,39.21,39.21,0,0,1,10.71-3.2c2.47-.4,5-.65,7.41-.89l1.65-.16a9,9,0,0,1,3-3.89,14.54,14.54,0,0,1,3.88-2.18,39.14,39.14,0,0,1,7.87-2.09,32.69,32.69,0,0,1,5.14-.41H157l-.42-.51.33-.27h0l-.3.25a149.17,149.17,0,0,1-13.91-20.16,106.11,106.11,0,0,1-36.81-16.4A85.56,85.56,0,0,1,90,421.19a68.52,68.52,0,0,1-11.26-18.46,26.6,26.6,0,0,1-1.6-5.48,18.23,18.23,0,0,1,0-5.9,34.89,34.89,0,0,1,1.32-5.43c.5-1.55,1-3.16,1.72-5.06a174.53,174.53,0,0,1,8.29-19.59,191.1,191.1,0,0,1,10.46-18.5c.7-1.07,1.36-2,2-2.94l-1.21.21-.53.07a4.21,4.21,0,0,1-.69.06h-.18a3.36,3.36,0,0,1-1.29-.33,2.55,2.55,0,0,1-1.36-1.76,2.88,2.88,0,0,1,.12-1.52l.19-.48.07-.15a10.41,10.41,0,0,1,.5-1.07,19.27,19.27,0,0,1,1.2-2,20.6,20.6,0,0,1,3-3.41,23.77,23.77,0,0,1,2.68-2.19,2.47,2.47,0,0,1-.89-1.13,2.9,2.9,0,0,1-.17-1.34.1.1,0,0,1,0-.05.7.7,0,0,1,.17-.91l.12-.09a5.48,5.48,0,0,1,.43-.92c.12-.19.22-.33.31-.45l.33-.43.18-.25c.15-.18.29-.37.45-.54l.11-.14c.37-.43.76-.89,1.18-1.31a26.46,26.46,0,0,1,3-2.56,24.41,24.41,0,0,1,6.88-3.56c.45-.15.92-.29,1.4-.42,4.17-37.84,10.45-67.77,19.75-94.08a122.86,122.86,0,0,1-14-5.12c-2.25-1-4.44-2-6.11-2.82l-3-1.58-1.06-.61c-.65-.37-1.3-.74-1.93-1.15a60,60,0,0,1-10.77-8.58,83.27,83.27,0,0,1-8.7-10.49c-1.38-2-2.62-3.76-3.79-5.55L85,180c-.23-.34-.46-.7-.72-1.16a13.19,13.19,0,0,1-.8-1.87,12.45,12.45,0,0,1-.7-4,8.65,8.65,0,0,1,.3-2.26,5.89,5.89,0,0,1,1.27-2.32,6.8,6.8,0,0,1,2-1.53,5.12,5.12,0,0,1,2.39-.54h.36a8.58,8.58,0,0,1,4.11,1.77c.55.4,1.06.81,1.54,1.2s.74.6,1.09.86.59.4.92.62l.81.52c.3.2.59.39.9.57,1.31.83,2.7,1.66,4.3,2.55a79.19,79.19,0,0,1-5.89-12.12c-.65-1.65-1.27-3.44-1.89-5.45-.28-.92-.55-1.84-.8-2.78a11.34,11.34,0,0,1-.53-3.37,6.12,6.12,0,0,1,5.15-6.15,5.58,5.58,0,0,1,.7,0,7.18,7.18,0,0,1,3.23.81,9.39,9.39,0,0,1,2.84,2.23l1.7,2.06c3.88,4.73,7.56,9.23,12,12.94a23.08,23.08,0,0,1-.91-4.49,23.91,23.91,0,0,1,.06-5.47c0-.44.12-.9.19-1.34a8.15,8.15,0,0,1,.38-1.59,6,6,0,0,1,2.29-3,5.61,5.61,0,0,1,1.81-.8,4.8,4.8,0,0,1,1.22-.15,5.69,5.69,0,0,1,.83.06,9.57,9.57,0,0,1,2.86,1l.13.06c1.51.76,3,1.56,4.56,2.4,3.08,1.68,6.07,3.46,8.84,5.12l4.15,2.49c6.13,3.68,12.48,7.49,18.65,11.39a12.68,12.68,0,0,1,1.27-.59l.23-.09a.58.58,0,0,1,.26-.05h.24c6.56,0,13.09,1.09,19.4,2.11l1.94.32c7.28,1.17,14.81,2.38,22.27,2.91,12.89.92,26,.94,38.78,1h3.87c12.55,0,25.21-1.45,37.46-2.85,3.48-.4,7-.8,10.48-1.18,7.09-4.11,14.4-8.05,21.47-11.86l7.39-4,5.79-3.17c.58-.32,1.16-.63,1.67-1s1.31-.85,2-1.3l.39-.26c1.65-1.12,3.27-2.2,5-3.18a22.78,22.78,0,0,1,5.79-2.4,11.67,11.67,0,0,1,2.74-.34l.67,0a8.27,8.27,0,0,1,3.52,1,9.17,9.17,0,0,1,2.73,2.34,8.08,8.08,0,0,1,1.52,3.39,15.19,15.19,0,0,1-.45,6.45c-.09.38-.19.76-.29,1.13a49.08,49.08,0,0,1,5.08-3.25,10.2,10.2,0,0,1,2.95-1,6.48,6.48,0,0,1,1-.08,4.69,4.69,0,0,1,2.58.71,4.23,4.23,0,0,1,1.43,1.57,5.61,5.61,0,0,1,.54,1.79,9.22,9.22,0,0,1-.22,3.18,37.64,37.64,0,0,1-1.56,5.18,42.78,42.78,0,0,1-2.28,4.82,64.21,64.21,0,0,1-4.4,7.07,43.32,43.32,0,0,1,6.33-3l.59-.22.75-.26a5.74,5.74,0,0,1,.58-.18,2.81,2.81,0,0,1,.78-.11,2.72,2.72,0,0,1,.8.12,2.8,2.8,0,0,1,1.36,1,2.89,2.89,0,0,1,.36.59l.3.59a9.26,9.26,0,0,1,.76,4.55,19.64,19.64,0,0,1-2.48,7.68,61.57,61.57,0,0,1-9,12c-1.82,1.92-3.65,3.78-5.44,5.56.53,5.73.88,11.47,1.24,17.83.14,2.35.27,4.67.42,7,.88,13.92,1.33,28.83,1.44,48.32.07,11.09,3.19,21.24,6.49,32l.07.21c8.34,1.36,17.22,2.81,26.21,4.36,17.65,3,40.84,7.29,63.63,13.18l1.19.31a.69.69,0,0,1,.52.78l-.19,1.22c-1.36,8.92-3.14,17.89-5.3,26.67s-4.93,17.51-7.94,26-6.64,16.94-10.47,25.11-8.27,16.22-12.89,24-9.84,15.31-15.23,22.56l-1.92,2.47c-2.1,2.72-4.28,5.52-6.54,8.2-2.93,3.49-6,6.91-9.06,10.19s-6.53,6.6-9.77,9.56-6.7,5.78-10,8.32a39.18,39.18,0,0,1,7,5.81,46.66,46.66,0,0,1,3.79,4.36,26,26,0,0,1,3.15,5.09,13.81,13.81,0,0,1,1,3.08,7.78,7.78,0,0,1-.13,3.7,9.08,9.08,0,0,1-.38,1,4.36,4.36,0,0,1-.75,1,6.07,6.07,0,0,1-1.64,1.2,14.1,14.1,0,0,1-3.06,1.13,42.21,42.21,0,0,1-5.38.83l-.42,0c-1.9.17-3.82.28-5.72.32h-1.44c-2.16,0-4.44-.11-6.79-.33a.68.68,0,0,1-.46.47l-.91.29A65,65,0,0,1,340.47,524.38Z"/><path class="cls-3" d="M352.73,143l.63,0a7.71,7.71,0,0,1,3.22.93,8.53,8.53,0,0,1,2.53,2.17,7.37,7.37,0,0,1,1.37,3.08,14.48,14.48,0,0,1-.44,6.16c-.25,1-.55,2.06-.82,3.06a55.3,55.3,0,0,1,6.63-4.41,9.41,9.41,0,0,1,2.71-.91,7.16,7.16,0,0,1,.94-.07,3.92,3.92,0,0,1,2.2.6,3.42,3.42,0,0,1,1.18,1.3,4.71,4.71,0,0,1,.47,1.57,8.26,8.26,0,0,1-.2,2.92,37.58,37.58,0,0,1-1.53,5.07,43.26,43.26,0,0,1-2.25,4.77,63.85,63.85,0,0,1-5.68,8.77c-.29.4-.6.78-.9,1.17a47.54,47.54,0,0,1,9.38-4.91l.88-.32.45-.15c.15-.05.27-.1.52-.17a2.55,2.55,0,0,1,.6-.08,1.84,1.84,0,0,1,.59.09,2.09,2.09,0,0,1,1,.74,3.75,3.75,0,0,1,.34.57l.25.5a8.62,8.62,0,0,1,.68,4.18,18.93,18.93,0,0,1-2.4,7.4A60.14,60.14,0,0,1,366.2,199q-2.79,2.94-5.65,5.77c.57,6,.93,12.13,1.28,18.13.13,2.35.26,4.67.41,7,.88,13.9,1.33,28.79,1.44,48.28.07,11.19,3.2,21.38,6.52,32.17.07.21.13.43.2.64,8.88,1.44,17.76,2.89,26.63,4.42,21.31,3.67,42.59,7.74,63.58,13.17h0l1.19.31-.19,1.21q-2,13.43-5.29,26.62t-7.92,25.95q-4.68,12.75-10.44,25.05-5.91,12.22-12.86,23.89t-15.19,22.5c-2.78,3.57-5.52,7.18-8.43,10.64s-5.93,6.86-9,10.16-6.37,6.46-9.73,9.52-6.87,5.94-10.5,8.69l-.27.2a39.06,39.06,0,0,1,7.76,6.24,49.44,49.44,0,0,1,3.74,4.3,26,26,0,0,1,3.07,5,13,13,0,0,1,1,2.92,7.17,7.17,0,0,1-.11,3.37c-.1.29-.2.55-.34.86a3.53,3.53,0,0,1-.63.87,5.35,5.35,0,0,1-1.46,1.06,13.42,13.42,0,0,1-2.9,1.07,43.66,43.66,0,0,1-5.7.85c-1.89.18-3.77.28-5.66.32h-1.42a72.38,72.38,0,0,1-7.51-.41l0,.58-.92.29h0a64,64,0,0,1-20.39,3.12c-2.28,0-4.56-.1-6.83-.28a134,134,0,0,1-26.7-5.46,16.65,16.65,0,0,0-3-.76h-.28a10.26,10.26,0,0,0-2.61.52,48,48,0,0,1-6.82,1.3,50.51,50.51,0,0,1-6,.35,56.09,56.09,0,0,1-7.78-.55,62.35,62.35,0,0,1-6.77-1.35l-.83-.22-.41-.11a3.74,3.74,0,0,1-.62-.23,2.93,2.93,0,0,1-1.12-1,3.56,3.56,0,0,1-.48-1.24,8.71,8.71,0,0,1,.47-3.93,31.1,31.1,0,0,1,1.3-3.28,26.13,26.13,0,0,1,1.68-3.13,25.82,25.82,0,0,1,3.49-4.38,5.25,5.25,0,0,1-1.84-1.73,4.3,4.3,0,0,1-.71-2.39,4.9,4.9,0,0,1,.65-2.29,13.77,13.77,0,0,1,2.66-3.13,24.52,24.52,0,0,1,2.79-2.3c-3.78.4-7.57.47-11.35.52q-4.9.06-9.83.06-6.62,0-13.23-.13-11.55-.24-23.07-1c-3.85-.23-7.68-.58-11.52-1-3.1-.3-6.21-.67-9.3-1.07a24,24,0,0,1,1.64,3l.11.27c3.41.45,6.95.64,10.46,1.38a42.92,42.92,0,0,1,5.67,1.54,15.4,15.4,0,0,1,5.24,3,13.84,13.84,0,0,1,2,2.33,27.12,27.12,0,0,1,1.52,2.6,39.69,39.69,0,0,1,2.18,5.47c.57,1.85,1.09,3.7,1.59,5.52l.1.34c0,.15.09.36.11.54a3.36,3.36,0,0,1-.06,1.14,3.36,3.36,0,0,1-2.17,2.45l-.27.08-.18,0-.36.09-1.41.34a70,70,0,0,1-15.6,1.84,58.81,58.81,0,0,1-7.61-.49,56.53,56.53,0,0,1-5.76-1c-1-.21-1.89-.49-2.84-.74a20.15,20.15,0,0,0-2.59-.66,4.31,4.31,0,0,0-.71-.05,7.31,7.31,0,0,0-1.67.22c-.85.21-1.81.49-2.73.74-1.85.49-3.71,1-5.57,1.44a148.93,148.93,0,0,1-22.74,4c-3,.27-5.93.42-8.91.42a84.27,84.27,0,0,1-14.26-1.18c-1.91-.32-3.81-.74-5.7-1.21-.94-.24-1.88-.51-2.81-.79a5.31,5.31,0,0,1-1.66-.78,5,5,0,0,1-1.3-1.38l0-.08q-4.36.43-8.74.43a84.77,84.77,0,0,1-11.7-.8,34,34,0,0,1-5.53-1.09,13.44,13.44,0,0,1-2.76-1.17,6.24,6.24,0,0,1-1.37-1,4.26,4.26,0,0,1-1-1.67,4.17,4.17,0,0,1-.13-2,6.58,6.58,0,0,1,.54-1.64,15.59,15.59,0,0,1,1.58-2.48c1.07-1.48,2.18-2.92,3.31-4.36a57.14,57.14,0,0,1,7.53-8,39.41,39.41,0,0,1,9.29-6A38.28,38.28,0,0,1,127.55,483c3.16-.5,6.34-.77,9.49-1.09a3,3,0,0,1,.09-.32A8.28,8.28,0,0,1,139.9,478a14.17,14.17,0,0,1,3.7-2.07,38.44,38.44,0,0,1,7.72-2.05,31.49,31.49,0,0,1,5-.4c.75,0,1.5,0,2.25.08-.49-.57-1-1.14-1.46-1.72l0,.08,0-.09a149,149,0,0,1-13.9-20.15l-.12-.19a104.94,104.94,0,0,1-36.84-16.35A84.55,84.55,0,0,1,90.5,420.74a67.84,67.84,0,0,1-11.14-18.28,25.75,25.75,0,0,1-1.56-5.32,17.75,17.75,0,0,1,0-5.68,33.47,33.47,0,0,1,1.3-5.33c.55-1.71,1.12-3.36,1.71-5A174.13,174.13,0,0,1,89,361.59a189.72,189.72,0,0,1,10.42-18.44c1-1.5,2-3,3.1-4.44-.31.08-.6.17-.91.24-.7.17-1.4.29-2.1.39l-.53.08a4.18,4.18,0,0,1-.58.05h-.14a2.39,2.39,0,0,1-1-.26,1.89,1.89,0,0,1-1-1.25,2.22,2.22,0,0,1,.11-1.21c.09-.25.15-.37.23-.56.14-.35.3-.68.47-1a19.34,19.34,0,0,1,1.15-1.91,21.65,21.65,0,0,1,2.87-3.31,25.57,25.57,0,0,1,3.82-2.94h-.31a1.84,1.84,0,0,1-1.54-1.12,2.52,2.52,0,0,1,0-1.58v0l-.24.1.28-.2a4.52,4.52,0,0,1,.44-1c.12-.19.22-.32.31-.44l.29-.38c.19-.25.38-.51.59-.75.41-.48.82-1,1.26-1.41a25.11,25.11,0,0,1,2.87-2.49,23.81,23.81,0,0,1,6.69-3.47c.6-.2,1.21-.37,1.82-.52,4.16-37.94,10.53-68.46,20-95.09a124.69,124.69,0,0,1-14.59-5.31c-2.06-.89-4.08-1.84-6.09-2.81l-3-1.57c-1-.58-2-1.11-2.94-1.73a60,60,0,0,1-10.65-8.48,83.55,83.55,0,0,1-8.62-10.41c-1.3-1.82-2.56-3.67-3.78-5.53L85.88,180c-.3-.47-.6-.88-.94-1.51a11.27,11.27,0,0,1-.76-1.76,11.85,11.85,0,0,1-.66-3.74,8,8,0,0,1,.27-2.07,5.27,5.27,0,0,1,1.12-2,6.13,6.13,0,0,1,1.75-1.37,4.39,4.39,0,0,1,2.09-.47h.32a8,8,0,0,1,3.74,1.64c1,.7,1.82,1.45,2.62,2.05.36.27.86.58,1.31.87s.91.6,1.38.88c1.84,1.17,3.73,2.25,5.65,3.29l.94.49a81.83,81.83,0,0,1-7.17-14.2c-.69-1.77-1.31-3.58-1.87-5.4-.28-.92-.55-1.83-.79-2.75a10.75,10.75,0,0,1-.51-3.18,5.43,5.43,0,0,1,4.53-5.48l.62,0a6.57,6.57,0,0,1,2.92.74,8.64,8.64,0,0,1,2.63,2.06c4.83,5.85,9.37,11.73,15.13,16.21l.54.39a23.62,23.62,0,0,1-1.69-6.62,22.54,22.54,0,0,1,.06-5.32c0-.44.11-.88.18-1.31a7.28,7.28,0,0,1,.35-1.46,5.21,5.21,0,0,1,2-2.67,5,5,0,0,1,1.6-.71,4.14,4.14,0,0,1,1-.13,4.32,4.32,0,0,1,.73.06,9.57,9.57,0,0,1,2.78,1q2.3,1.15,4.54,2.38c3,1.64,5.91,3.37,8.81,5.11,7.72,4.65,15.49,9.25,23.13,14.09a12.43,12.43,0,0,1,1.56-.75l.23-.09h.24a123.61,123.61,0,0,1,19.29,2.1l1.94.32c7.29,1.17,14.84,2.39,22.33,2.92,12.91.92,26.09.94,38.83,1h3.87c12.6,0,25.28-1.45,37.56-2.86,3.51-.4,7.05-.81,10.61-1.18,9.54-5.55,19.31-10.68,29-15.93l5.06-2.77c.84-.47,1.7-.91,2.45-1.39s1.57-1,2.37-1.57c1.59-1.08,3.22-2.18,5-3.15a22.19,22.19,0,0,1,5.61-2.33,10.92,10.92,0,0,1,2.58-.32M167.66,171.21l.33-.44-1.06,0c.24.16.48.32.73.47m185.07-29.57a12.57,12.57,0,0,0-2.9.36,23.59,23.59,0,0,0-6,2.47c-1.77,1-3.4,2.08-5.06,3.21l-.39.26c-.67.46-1.3.89-1.94,1.29s-1,.61-1.62.93l-.77.42-5,2.76c-2.45,1.34-4.92,2.66-7.38,4-7,3.79-14.31,7.71-21.36,11.8-3.62.39-7.33.81-10.32,1.16-12.24,1.4-24.88,2.85-37.4,2.85h-3.86c-12.73,0-25.89,0-38.74-1-7.43-.52-14.94-1.73-22.21-2.9l-1.94-.32a124.31,124.31,0,0,0-19.51-2.12h-.24a1.3,1.3,0,0,0-.52.1l-.23.09c-.32.12-.64.27-1,.43-6.06-3.82-12.28-7.54-18.29-11.15l-4.19-2.52c-2.76-1.66-5.75-3.43-8.86-5.14-1.52-.83-3.06-1.64-4.59-2.4l-.12-.06a10.5,10.5,0,0,0-3.06-1.09,7.88,7.88,0,0,0-1-.07,5.69,5.69,0,0,0-1.39.17,6.44,6.44,0,0,0-2,.9,6.74,6.74,0,0,0-2.57,3.39,8.5,8.5,0,0,0-.4,1.7c-.07.39-.14.88-.19,1.38a24.56,24.56,0,0,0-.07,5.61,21.76,21.76,0,0,0,.37,2.38,111.53,111.53,0,0,1-10.19-11.36l-1.68-2a10.14,10.14,0,0,0-3.1-2.43,7.87,7.87,0,0,0-3.53-.88A6.51,6.51,0,0,0,93,150.75a11.92,11.92,0,0,0,.57,3.57c.23.87.5,1.81.79,2.77.63,2,1.25,3.82,1.91,5.5a78.07,78.07,0,0,0,4.65,10c-.71-.42-1.38-.83-2-1.24l-.89-.56-.48-.32-.33-.21c-.32-.21-.66-.43-.89-.6s-.7-.55-1.07-.85-1-.81-1.57-1.22a9.24,9.24,0,0,0-4.39-1.89h-.49a5.82,5.82,0,0,0-2.73.63,7.29,7.29,0,0,0-2.13,1.66,6.51,6.51,0,0,0-1.44,2.6,8.89,8.89,0,0,0-.33,2.44,13.24,13.24,0,0,0,.74,4.21,12.62,12.62,0,0,0,.85,2c.27.5.52.88.74,1.22.09.12.17.24.25.37l1.83,2.81c1.18,1.8,2.42,3.62,3.8,5.57a84.72,84.72,0,0,0,8.78,10.58,61,61,0,0,0,10.9,8.69c.64.41,1.31.79,2,1.16l1,.59.07,0,3,1.57c1.71.82,3.91,1.87,6.18,2.86a123.28,123.28,0,0,0,13.34,4.93c-9.15,26.08-15.35,55.73-19.49,93.07-.34.09-.67.2-1,.31a24.93,24.93,0,0,0-7.06,3.66,26,26,0,0,0-3,2.63c-.44.44-.83.9-1.21,1.35l-.13.14-.45.57-.17.22-.31.41,0,0a6,6,0,0,0-.34.5,5.75,5.75,0,0,0-.43.86,1.4,1.4,0,0,0-.38,1.64,3.78,3.78,0,0,0,.24,1.43,2.74,2.74,0,0,0,.46.8,26.27,26.27,0,0,0-2.08,1.75,22.2,22.2,0,0,0-3.07,3.55,19,19,0,0,0-1.22,2,12.48,12.48,0,0,0-.54,1.15l-.06.13c-.06.14-.12.27-.19.48l0,.07a3.53,3.53,0,0,0-.14,1.88,3.24,3.24,0,0,0,1.75,2.25,3.78,3.78,0,0,0,1.51.38h.25a7.33,7.33,0,0,0,.8-.06l.11,0c-.34.51-.7,1-1.06,1.59A191.76,191.76,0,0,0,87.77,361a174.21,174.21,0,0,0-8.32,19.66c-.68,1.91-1.23,3.52-1.72,5.07a36.07,36.07,0,0,0-1.36,5.55,19.38,19.38,0,0,0,0,6.13,27.92,27.92,0,0,0,1.63,5.6,69.53,69.53,0,0,0,11.38,18.66,86.27,86.27,0,0,0,16,14.59,107.15,107.15,0,0,0,36.76,16.45A151.56,151.56,0,0,0,155.54,472a34.56,34.56,0,0,0-4.44.41,39,39,0,0,0-8,2.13,15.57,15.57,0,0,0-4.06,2.27,10,10,0,0,0-3,3.79l-1.21.12c-2.44.25-5,.5-7.47.9a40.08,40.08,0,0,0-10.91,3.26,41.3,41.3,0,0,0-9.6,6.18,58.63,58.63,0,0,0-7.71,8.22c-1.39,1.77-2.42,3.13-3.35,4.42l0,.05A16.71,16.71,0,0,0,94,506.44a8,8,0,0,0-.65,2,5.6,5.6,0,0,0,.19,2.65A5.5,5.5,0,0,0,95,513.32a7.71,7.71,0,0,0,1.65,1.23,14.74,14.74,0,0,0,3,1.3,35.7,35.7,0,0,0,5.75,1.14,86.56,86.56,0,0,0,11.89.81c2.66,0,5.37-.12,8.06-.36a6.56,6.56,0,0,0,3.31,2.13c.83.24,1.84.53,2.84.78,2.12.54,4,.94,5.81,1.24a86.47,86.47,0,0,0,14.49,1.2c3,0,6-.14,9-.42a150.82,150.82,0,0,0,22.95-4.08c2-.5,4.06-1,5.59-1.45l1-.28c.57-.16,1.14-.32,1.67-.45a5.7,5.7,0,0,1,1.34-.18,4.19,4.19,0,0,1,.5,0,13.56,13.56,0,0,1,1.9.48l.51.14.88.24c.66.19,1.35.38,2.06.53a59.43,59.43,0,0,0,5.86,1.06,60.71,60.71,0,0,0,7.8.5A71.42,71.42,0,0,0,228.86,517l1.44-.35.35-.09.19-.05.08,0,.27-.08.06,0a5.07,5.07,0,0,0,1.38-.78,4.76,4.76,0,0,0,1.68-2.68,4.86,4.86,0,0,0,.08-1.62,5.62,5.62,0,0,0-.14-.67.24.24,0,0,0,0-.08l-.09-.34c-.45-1.62-1-3.56-1.6-5.55a41.53,41.53,0,0,0-2.27-5.69,27.08,27.08,0,0,0-1.61-2.75,14.4,14.4,0,0,0-2.24-2.59,16.53,16.53,0,0,0-5.69-3.31,45.26,45.26,0,0,0-5.86-1.59,70.64,70.64,0,0,0-7.13-1c-.92-.09-1.79-.18-2.66-.29l-.12-.24c2.42.29,4.56.53,6.58.72,3.66.36,7.6.73,11.56,1,8.24.53,15.81.86,23.13,1,4.23.09,8.69.13,13.26.13,3.16,0,6.47,0,9.85-.06,2.3,0,4.7-.07,7.12-.2a13.72,13.72,0,0,0-2.46,3,6.34,6.34,0,0,0-.83,3,5.64,5.64,0,0,0,.93,3.17,6.33,6.33,0,0,0,.94,1.14,27.35,27.35,0,0,0-4.36,6.76,30.48,30.48,0,0,0-1.36,3.44l-.06.21a9.41,9.41,0,0,0-.46,4.34v.06a4.81,4.81,0,0,0,.68,1.75,4.35,4.35,0,0,0,1.66,1.46,5.44,5.44,0,0,0,.79.31l.1,0,.41.11.84.22a61.53,61.53,0,0,0,6.93,1.38,56.75,56.75,0,0,0,8,.57,52.64,52.64,0,0,0,6.19-.36,49.31,49.31,0,0,0,7-1.34l.09,0a9.25,9.25,0,0,1,2.16-.44h.16a10.2,10.2,0,0,1,2,.48l.8.23c10.63,3.15,19,4.85,27,5.51,2.34.2,4.68.29,6.94.29a65.54,65.54,0,0,0,20.83-3.19l.9-.29a1.24,1.24,0,0,0,.62-.4c2.22.2,4.38.3,6.43.3h1.45c1.91,0,3.85-.15,5.75-.32l.43,0a40.21,40.21,0,0,0,5.47-.84,14.48,14.48,0,0,0,3.22-1.18,7.37,7.37,0,0,0,1.83-1.34,4.8,4.8,0,0,0,.86-1.2l0,0a10.34,10.34,0,0,0,.4-1,8.56,8.56,0,0,0,.16-4.07,14.36,14.36,0,0,0-1.07-3.23,26.79,26.79,0,0,0-3.22-5.23,49.42,49.42,0,0,0-3.85-4.42,39.31,39.31,0,0,0-6.34-5.36c3.08-2.39,6.19-5,9.28-7.76,3.26-3,6.55-6.2,9.8-9.59s6.17-6.74,9.1-10.23c2.26-2.68,4.43-5.48,6.54-8.2l1.92-2.48c5.42-7.29,10.56-14.9,15.28-22.63s9-15.85,12.93-24,7.38-16.68,10.49-25.18,5.7-17.32,8-26.08,4-17.82,5.33-26.75l.18-1.22a1.4,1.4,0,0,0-1-1.57l-1.19-.3c-22.82-5.91-46-10.16-63.69-13.2-8.82-1.52-17.56-3-25.79-4.29-3.27-10.61-6.33-20.65-6.4-31.57-.11-19.51-.56-34.43-1.44-48.36-.15-2.29-.28-4.61-.42-7-.36-6.25-.7-11.9-1.21-17.52,1.73-1.73,3.48-3.52,5.21-5.34a62.4,62.4,0,0,0,9.11-12.17,20.57,20.57,0,0,0,2.57-8,10,10,0,0,0-.81-4.88s0,0,0,0l-.25-.49-.05-.1a4.7,4.7,0,0,0-.42-.68,3.43,3.43,0,0,0-1.71-1.23,3.29,3.29,0,0,0-1-.16,4.24,4.24,0,0,0-.94.12c-.29.08-.43.13-.58.18l-.06,0-.45.16-.31.11-.63.23a39.61,39.61,0,0,0-3.87,1.69c1-1.54,2-3.14,2.83-4.76a45.54,45.54,0,0,0,2.32-4.93,38.11,38.11,0,0,0,1.58-5.24,9.65,9.65,0,0,0,.23-3.43,6,6,0,0,0-.62-2,4.91,4.91,0,0,0-1.65-1.83,5.39,5.39,0,0,0-3-.82,9.09,9.09,0,0,0-1.13.08,10.91,10.91,0,0,0-3.13,1l-.06,0c-1.3.72-2.51,1.48-3.63,2.23a14.46,14.46,0,0,0,.3-6.08,8.51,8.51,0,0,0-1.64-3.66,9.87,9.87,0,0,0-2.95-2.55,9.19,9.19,0,0,0-3.81-1.1l-.72,0Z"/><path class="cls-4" d="M272.25,213.42c-11,4.46-21,13-32.86,12.82-13.25-.17-23.63-11-35.77-16.29-21-9.15-47.7.41-59.69,19.89s-9.23,46.33,5,64.22,38.5,26.59,61.21,23.85c10.61-1.27,21-4.82,31.63-4.93,18.13-.18,35.32,9.51,53.43,9,20.83-.61,40.06-16,46.34-35.87C354.6,244.81,317.11,195.22,272.25,213.42Z"/><g id="G"><ellipse class="cls-3" cx="285.55" cy="256.95" rx="24.41" ry="24.21"/><ellipse class="cls-4" cx="268.55" cy="256.6" rx="7.95" ry="7.89"/></g><g id="G-2" data-name="G"><ellipse class="cls-3" cx="178.37" cy="256.28" rx="21.93" ry="22.1" transform="translate(-103.12 391.41) rotate(-80.81)"/><ellipse class="cls-4" cx="163.22" cy="253.5" rx="7.15" ry="7.2" transform="translate(-113.1 374.12) rotate(-80.81)"/></g><path class="cls-5" d="M374,328.87c-3.56-17.17-11.45-32.94-11.55-50.74q-.07-12.63-.61-25.24-.29-6.44-.69-12.87c-.25-3.77-1.17-8-.57-11.76,2.37-14.78-1.23-31.5-5.63-45.68-1.49-4.81-2.3-7.33-7.3-9.09-15-5.31-30.44-4.14-45.88-2-16.43,2.26-32.94,4.36-49.56,4.32-13.63,0-27.26,0-40.86-.88s-26.84-3.47-40.24-6a2.62,2.62,0,0,0-1.39,0,2.53,2.53,0,0,0-1.08,1c-10.08,13.35-21.56,27.54-27.71,43.16a303.9,303.9,0,0,0-14.43,49.29c-1.8,8.56-3.29,17.19-4.58,25.85s-2.37,17.24-3.31,25.88a27.7,27.7,0,0,0-14,9.55c-.54.7-1,1.88-.18,2.3a1.55,1.55,0,0,0,1,.06l3.8-.58a38.8,38.8,0,0,0-3.88,2.43A21.78,21.78,0,0,0,97.67,337a1,1,0,0,0-.11.72c.16.45.77.48,1.23.43a43.94,43.94,0,0,0,6.43-1.19c-1.77,2.28-3.39,4.7-4.92,7.14a188.48,188.48,0,0,0-19.42,41.07A27.45,27.45,0,0,0,79,394.8a24.8,24.8,0,0,0,2.39,8.84c10.7,24.55,36.84,40.95,63,47a177.55,177.55,0,0,0,16.34,23.86v.05A39.3,39.3,0,0,0,146,476.49c-2.59.88-5.25,2.06-6.81,4.31a4.51,4.51,0,0,0-.85,2.25,2.71,2.71,0,0,0,.17,1.13,3.5,3.5,0,0,0,1,1.31,8,8,0,0,0,3.26,1.66,18.83,18.83,0,0,0,4,.57,54.05,54.05,0,0,0,19-2.84l.44.22a9,9,0,0,0-.72,2A6,6,0,0,0,171.5,495a13,13,0,0,0,4.92-1.14,25.94,25.94,0,0,0,9.45-6.69l.24,0a18.8,18.8,0,0,0,5.8,11.85c1.77,1.58,4.09,2.8,6.44,2.48,3.32-.46,5.56-4,5.66-7.31a12,12,0,0,0-.68-4.2,25.84,25.84,0,0,0-2.52-5.18l-.46-.75c23,2.71,46.27,3.32,69.37,3.31,4.9,0,9.8-.14,14.67-.62a28.47,28.47,0,0,0-6.9,5.46c-1,1.09-2,2.41-1.88,3.89a4,4,0,0,0,2.55,3.22,5.14,5.14,0,0,0,.94.3,10.85,10.85,0,0,0,3.32.2,34.08,34.08,0,0,0,15.93-5.29l.16.24c-.41,1.78-.68,4,.78,5.11,1.31,1,3.17.4,4.63-.33,5.1-2.58,9.32-6.56,13.08-10.89,7.11.3,14.33.63,21.14,2.6a58.39,58.39,0,0,1,15.15-2.12c12.72-22.85,18.88-52,22.55-77.67C379.75,384.07,379.62,355.94,374,328.87ZM253.07,242.12c.27-.57.57-1.14.88-1.7,3.21-5.63,8.31-10,13.81-13.39,7.46-4.65,15.95-7.88,24.74-8.33s17.86,2.05,24.58,7.71a37,37,0,0,1,9.69,13.32,32.51,32.51,0,0,1,3,11.87c.39,10.13-5.45,19.49-12.33,26.93a39.5,39.5,0,0,1-14.82,10.14c-6.74,2.6-13.72,2-20.79,1.06a39.55,39.55,0,0,1-11.39-3,32.15,32.15,0,0,1-8.72-6.18A37.87,37.87,0,0,1,251,261.74,30.79,30.79,0,0,1,253.07,242.12ZM148.56,239a33.33,33.33,0,0,1,7.38-11.83c7.83-7.78,20.58-12.21,31.46-9.7,9.71,2.23,16.77,8.92,21.35,17.65a35.5,35.5,0,0,1,3.83,11.82c.37,2.86,1.14,8.81-1.12,11.08l0,0c-3.73,5.51-6.46,11.53-7,18,0,0-.52-.05-.56-.06-.85,3.91-6.52,6.19-9.93,7.48-8.73,3.31-18.58,4.72-27.38,1.59S151.06,274.61,147.94,266A39.28,39.28,0,0,1,148.56,239Z"/><path class="cls-6" d="M127.31,369.87c-.63,7.7-.85,15.46-1,23.36-.35,14.36,1.82,27,7.83,40.07,2.94,6.41,5.28,13.1,9.45,18.79a60.76,60.76,0,0,1,6.33,9.68c1.71,3.54,6,6.61,7.29,10.1q-5.83-16.33-11.43-32.75c-5.24-15.4-11-30.4-12.38-46.6-1.39-16-.64-30.85-5.52-46.36C127.4,354,127.94,362,127.31,369.87Z"/><path class="cls-7" d="M154.17,361.87l.06-.27c.33-1.39,1-4.56,2-5.55a41.3,41.3,0,0,0-6.47,7.2,13.79,13.79,0,0,0-2.42,9.17,12.21,12.21,0,0,0,3.52,6.82,8.24,8.24,0,0,0,4.05,2.44,7.48,7.48,0,0,0,7.6-3.07,12.82,12.82,0,0,0,3.86,8.26,9.35,9.35,0,0,0,8.64,2.26,12,12,0,0,0,5.32-3.39c.5-.54,3.82-4.75,3.14-5.47a31.51,31.51,0,0,0,8.68,7,13.65,13.65,0,0,0,9.63,1.12A7.76,7.76,0,0,0,205,387c.52-.47,2.27-3.18,1.72-3.91,4.08,5.41,10,7.09,16.43,7.27a8.52,8.52,0,0,0,6.74-2.32c1.6-1.53,3.2-4.64,2.33-6.92a15.8,15.8,0,0,0,6,7.94c3.12,2,15.08,1.51,10.74-4.66,0-.05-6.9,1.1-7.7,1a9.5,9.5,0,0,1-6.61-4.53c-2.09-3.49-2.3-7.74-2.45-11.8a6.78,6.78,0,0,1-2.64,5.81c-1.8,1.39-2.94,3.16-4.57,4.75s-3.84,2.7-6,2.23a6.77,6.77,0,0,1-2.79-1.44,23.44,23.44,0,0,1-5-6.11c-3-4.66-5.58-9.52-8.2-14.37l1.38,8.56a20.31,20.31,0,0,1,.38,5.6,6.91,6.91,0,0,1-2.55,4.85,6.62,6.62,0,0,1-6.28.44,14.66,14.66,0,0,1-5.15-4,77.34,77.34,0,0,1-8.6-12.49,12.41,12.41,0,0,1-4.54,14.18,5.93,5.93,0,0,1-3.86,1.2c-2.21-.24-3.77-2.28-4.72-4.3-2.22-4.75-2.53-10.13-2.8-15.37a17.58,17.58,0,0,1-6.33,11.23c-1.09.87-2.53,1.64-3.82,1.11a3.55,3.55,0,0,1-1.82-2.43A13.94,13.94,0,0,1,154.17,361.87Z"/><path class="cls-7" d="M154.6,346.46c5.86,1.69,8.45-5.94,12.3-8.61a15.47,15.47,0,0,1-6.19,3c-2.29.35-4.92-.51-6-2.59a6.48,6.48,0,0,1-.55-2.62,14.9,14.9,0,0,1,2.18-8.35,33,33,0,0,0-6.63,8.06c-2.06,3.53-.45,7.72,2.64,10A6.69,6.69,0,0,0,154.6,346.46Z"/><path class="cls-7" d="M196.72,351.62a15.89,15.89,0,0,1-3.12-5.36c-1.6-4.63-1-9.69-.35-14.55a55.91,55.91,0,0,1-7.64,11.81c-.78.93-1.77,1.91-3,1.83s-2.14-1.33-2.66-2.5a14.91,14.91,0,0,1-1.27-6.55c-.16,4.85-2.56,9.9,1.83,13.71,3.28,2.84,7.54-1.38,9.3-4.18a7.66,7.66,0,0,0,3.39,5.3,23.05,23.05,0,0,0,5.88,2.69A15.93,15.93,0,0,1,196.72,351.62Z"/><path class="cls-7" d="M214.55,350.16a31.14,31.14,0,0,1-5.8-4.94c.06,3.76,1,7.69,3.5,10.47s7,4,10.2,2.05a4.85,4.85,0,0,0,2.08-2.35c.61-1.61.14-3.59,1.16-5-2.39,3.25-8.08,1.7-10.76,0Z"/><path class="cls-7" d="M230,411.54a17.26,17.26,0,0,1-11-6.17c-1.93-2.17-5.65-7.06-5.7-10a35.69,35.69,0,0,1-3.67,16.37c-.94,1.9-2.21,3.84-4.21,4.52a5.88,5.88,0,0,1-5.26-1.1,12.73,12.73,0,0,1-3.4-4.38,31.29,31.29,0,0,1-3.48-16.39,51.69,51.69,0,0,1-11,18.7c-1.72,1.86-4.44,3.72-6.59,2.36a5.5,5.5,0,0,1-1.9-2.91,36.56,36.56,0,0,1-2.07-9.64,16.7,16.7,0,0,0-.27,14.63c1.49,3.15,4.49,6,8,5.76,2.19-.15,4.1-1.47,5.78-2.88a40.45,40.45,0,0,0,7.16-7.85c1.16,5.59,5.91,10.53,11.6,11s11.53-4.42,11.29-10.12c7.58,6.05,19.42,4.43,25.29-3.12A21.56,21.56,0,0,1,230,411.54Z"/><path class="cls-8" d="M201,484.63c-.51-.91-1.06-1.79-1.64-2.66a16.09,16.09,0,0,1,2.81,5.74c.4,2.11-.24,4.57-2.08,5.68a5.94,5.94,0,0,1-4.41.43c-6.66-1.54-9.13-9.1-8.94-15.34a17.71,17.71,0,0,1-11,9.25c-2.24.64-5.26.46-6.15-1.7a4.71,4.71,0,0,1,0-3,14.27,14.27,0,0,1,6.41-8.42,48.67,48.67,0,0,1-22.2,7.2c-2.14.15-4.42.13-6.28-1s-3.06-3.57-2.05-5.47c-1.07,2-4.94,3.34-6.37,5.41a4.51,4.51,0,0,0-.85,2.25,2.71,2.71,0,0,0,.17,1.13,3.5,3.5,0,0,0,1,1.31,8,8,0,0,0,3.26,1.66,18.83,18.83,0,0,0,4,.57,54.05,54.05,0,0,0,19-2.84l.44.22a9,9,0,0,0-.72,2A6,6,0,0,0,171.5,495a13,13,0,0,0,4.92-1.14,25.94,25.94,0,0,0,9.45-6.69l.24,0a18.8,18.8,0,0,0,5.8,11.85c1.77,1.58,4.09,2.8,6.44,2.48,3.32-.46,5.56-4,5.66-7.31a12,12,0,0,0-.68-4.2A31.66,31.66,0,0,0,201,484.63Z"/><path class="cls-9" d="M137.06,223.53q-3.7,10.71-6.55,21.71c-.93,3.54-9.47,42.86-8.6,43l.41.06a33.71,33.71,0,0,0,18.5,25.27c11.21,5.36,24.53,4,36.42.38,11.62-3.54,24.92-9.55,31.46-20.29l0,0a29.55,29.55,0,0,0,6.35,7.3,43.45,43.45,0,0,0,7.3-9.63l.42.23A30.31,30.31,0,0,0,241.91,290c16.26,26.62,61.31,34,88.12,21.3a38.21,38.21,0,0,0,12.65-9.19c8.6-9.94,8.85-29,8.89-41.47a126.72,126.72,0,0,0-8.4-45.93c-1.42-3.68-3.12-8.58-6.12-11.2-3.66-3.19-10-4.62-14.71-5-8.37-.71-16.67,1.88-24.44,5.09-10.26,4.23-20,9.57-29.86,14.65-15.63,8.05-31.92,12.43-45.61,23.77-2.17-6-3.9-11.57-8.53-16s-8.82-8.94-14.22-12.28c-11.53-7.11-25.16-11.43-38.62-10C149.69,205,140.74,212.9,137.06,223.53ZM211.46,258l0,0c-3.73,5.51-6.46,11.53-7,18,0,0-.52-.05-.56-.06-.85,3.91-6.52,6.19-9.93,7.48-8.73,3.31-18.58,4.72-27.38,1.59S151.06,274.61,147.94,266a39.28,39.28,0,0,1,.62-27,33.33,33.33,0,0,1,7.38-11.83c7.83-7.78,20.58-12.21,31.46-9.7,9.71,2.23,16.77,8.92,21.35,17.65a35.5,35.5,0,0,1,3.83,11.82C213,249.77,213.72,255.72,211.46,258Zm100.07,26a33.92,33.92,0,0,1-11.83,5.72c-4.27,1-9.51.82-13.92.77-8.55-.11-17.65-2.34-24-8.41A30.73,30.73,0,0,1,255,271.27c-3-7.39-4.67-15.67-2.57-23.37,1.64-6,5.46-11.26,10-15.49a44.12,44.12,0,0,1,15.23-9.27,40.62,40.62,0,0,1,40.26,8.5c6.2,5.8,10.54,13.93,10.49,22.42a31.7,31.7,0,0,1-2.89,12.53,43.22,43.22,0,0,1-12.87,16.53Z"/><path class="cls-5" d="M199.64,222.09a28.33,28.33,0,0,0-16.48-5.17,45.69,45.69,0,0,0-9,1.37,57.77,57.77,0,0,0-10.27,3.4c-1.84.72-3.72,1.22-5.09,2.73-.56.61-2.14,3.57-2.91,3.55a77.36,77.36,0,0,1,49.92,20.59c1.07,1,6.86,5.88,6.57,7.35.77-3.94,1.58-9.12.9-13.09-.43-2.55-1.86-5.21-3-7.5C207.67,230.31,204.28,225.37,199.64,222.09Z"/><path class="cls-5" d="M303.62,221.11a44.76,44.76,0,0,0-38.95,6.72,34,34,0,0,0-12.43,17.31c-.86,2.67,0,5.44-.24,8.16-.06.81.21,7.46.24,7.44,9.49-7.58,19.49-14.66,30.47-19.87s23-8.48,35.19-8.18a9.11,9.11,0,0,1,5.25,1.29c-1.74-4.32-7.19-7.94-11.37-9.89A60.29,60.29,0,0,0,303.62,221.11Z"/><path class="cls-10" d="M241.91,290a30.31,30.31,0,0,1-19.11,1.55l-.42-.23a43.45,43.45,0,0,1-7.3,9.63,29.77,29.77,0,0,1-10-16,28.08,28.08,0,0,1-.68-8.91c.54-6.49,3.27-12.51,7-18l0,0c.28-.37.54-.75.79-1.14l0-.06a92.33,92.33,0,0,1,9.27-10.85,38.07,38.07,0,0,1,19.21,17.12,38.57,38.57,0,0,1,3.54,25.65A19.56,19.56,0,0,1,241.91,290Z"/><path class="cls-11" d="M240.77,263.06a38.57,38.57,0,0,1,3.54,25.65,19.56,19.56,0,0,1-2.4,1.27,30.31,30.31,0,0,1-19.11,1.55l-.42-.23a43.45,43.45,0,0,1-7.3,9.63c-.63.61-4.66-5.06-5-5.79a26.76,26.76,0,0,1-2.62-8.37,25.58,25.58,0,0,0,7,8.87,85.44,85.44,0,0,0,6-7.92c1.88-2.81,3-5.68,5.12-8.33,0,1.43-1.26,5.6,0,6.7.64.56,2.85,0,3.57-.12,2.73-.37,5.44-1,8.14-1.57a1.56,1.56,0,0,0,1-.46,1.49,1.49,0,0,0,.13-1.12c-.93-6.85-2-13.76-4.68-20.14s-7-12.28-13.15-15.5c1.64.86,4.21.83,6,1.58a23.76,23.76,0,0,1,6,3.57A33.38,33.38,0,0,1,240.77,263.06Z"/><path class="cls-10" d="M376.22,497.53a33.71,33.71,0,0,0-22.93-8.47,58.39,58.39,0,0,0-15.15,2.12c-6.81-2-14-2.3-21.14-2.6-3.76,4.33-8,8.31-13.08,10.89-1.46.73-3.32,1.32-4.63.33-1.46-1.1-1.19-3.33-.78-5.11l-.16-.24a34.08,34.08,0,0,1-15.93,5.29,10.85,10.85,0,0,1-3.32-.2l-.07.29a24.65,24.65,0,0,0-6,8.35c-.67,1.54-3.13,6.91-.32,7.7a52.85,52.85,0,0,0,28,.59,11.36,11.36,0,0,1,3-.56,9.62,9.62,0,0,1,2.68.55,136.16,136.16,0,0,0,26.89,5.65,67.22,67.22,0,0,0,27.2-2.74c0-.37-.05-.74-.07-1.11a75.37,75.37,0,0,0,18.26-.1,17.81,17.81,0,0,0,5.46-1.37,3.61,3.61,0,0,0,1.78-1.55C388.37,510,379.7,500.62,376.22,497.53Z"/><path class="cls-10" d="M231.69,511.35c-1.48-5.19-2.73-11.61-6.22-15.38-2.19-2.36-5.38-3.49-8.5-4.28-5.12-1.29-8.45-1.23-13.64-1.78a12,12,0,0,1,.68,4.2c-.1,3.35-2.34,6.85-5.66,7.31-2.35.32-4.67-.9-6.44-2.48a18.8,18.8,0,0,1-5.8-11.85l-.24,0a25.94,25.94,0,0,1-9.45,6.69A13,13,0,0,1,171.5,495a6,6,0,0,1-6.05-7.89,9,9,0,0,1,.72-2l-.44-.22a54.05,54.05,0,0,1-19,2.84,18.83,18.83,0,0,1-4-.57,8,8,0,0,1-3.26-1.66,3.5,3.5,0,0,1-1-1.31,2.71,2.71,0,0,1-.17-1.13c-5.64.12-11.38.28-16.72,2-10.4,3.35-17.78,12.11-24,20.8-1,1.38-2,3.09-1.31,4.63a4.26,4.26,0,0,0,2.07,1.87,21,21,0,0,0,6.42,1.76,89.49,89.49,0,0,0,22,.53,3.8,3.8,0,0,0,2.46,2.32,81.27,81.27,0,0,0,29.13,2.91c10.83-.73,21.48-3.12,31.94-6a12,12,0,0,1,3.19-.57A12.92,12.92,0,0,1,197,514c10.86,3.17,22.32,2.79,33.17,0A2.12,2.12,0,0,0,231.69,511.35Z"/><path class="cls-11" d="M383.69,506.5a1,1,0,0,1-.24,1.32,3,3,0,0,1-1.36.55,118.05,118.05,0,0,1-14.6,2.12,8.6,8.6,0,0,1-2.82-.09,7.46,7.46,0,0,1-2.9-1.74,24.71,24.71,0,0,1-6.36-8.65c.35,3.23,2.41,6.46,1.3,9.52-1.8,4.92-9.51,6.46-13.94,6.87-6.84.62-13.74-.18-20.48-1.35-10.29-1.79-20.56-4.43-31-4.13-4.8.14-9.7.89-14.33-.38a2.77,2.77,0,0,1-1.28-.64c-.76-.78-.43-2.1.13-3a7.8,7.8,0,0,0,1.34-2.82c-2.17,1.83-3.64,2.66-4.72,5.44-.61,1.54-2.32,5.67.24,6.39a52.85,52.85,0,0,0,28,.59,11.36,11.36,0,0,1,3-.56,9.62,9.62,0,0,1,2.68.55,136.16,136.16,0,0,0,26.89,5.65,67.22,67.22,0,0,0,27.2-2.74c0-.37-.05-.74-.07-1.11a75.37,75.37,0,0,0,18.26-.1,17.81,17.81,0,0,0,5.46-1.37,3.61,3.61,0,0,0,1.78-1.55C387.52,511.8,384.86,509.43,383.69,506.5Z"/><path class="cls-11" d="M232,511.36a16.63,16.63,0,0,0-1.68-6.86,1.19,1.19,0,0,1-.42,1.46,3.59,3.59,0,0,1-1.55.54c-3.77.69-7.78,1.35-11.34-.06-1.51-.61-2.87-1.56-4.39-2.14-3.15-1.19-6.69-.66-9.91.3-3.45,1-6.86,2.32-10.29,3.37-4.11,1.25-8.73,1.65-13,2.22a185.06,185.06,0,0,1-26,1.62c-6-.05-25.19-.27-22.17-10.8a33,33,0,0,0,1.49-5.07c-2.32,4.07-5,8.47-9.49,9.91a16.64,16.64,0,0,1-7,.34,61.35,61.35,0,0,1-9.59-1.88,2.81,2.81,0,0,1-1.65-.92,2.63,2.63,0,0,1-.13-2.17,14.54,14.54,0,0,1,4-6.84,52.27,52.27,0,0,0-11.29,11.47c-1,1.38-2,3.09-1.31,4.63a4.26,4.26,0,0,0,2.07,1.87,21,21,0,0,0,6.42,1.76,89.49,89.49,0,0,0,22,.53,3.8,3.8,0,0,0,2.46,2.32,81.27,81.27,0,0,0,29.13,2.91c10.83-.73,21.48-3.12,31.94-6a12,12,0,0,1,3.19-.57A12.92,12.92,0,0,1,197,514c10.86,3.17,22.32,2.79,33.17,0A2.5,2.5,0,0,0,232,511.36Z"/><path class="cls-8" d="M135.11,432.17c-5.39-11.7-8-24.49-8.79-37.31a164.08,164.08,0,0,1,.05-19.46c.36-6-.33-12.91,1-18.74-4.78,20.39-8.25,42.38-4.85,63.26.75,4.63,1.91,9.39,4.89,13a94.63,94.63,0,0,1-41.91-21.4c6.72,11,16.52,19.77,27.45,26.41a105.19,105.19,0,0,0,17.58,8.52c3,1.15,6.17,2,9.23,3,1.25.42,6.15,1.41,6.75,2A109.23,109.23,0,0,1,135.11,432.17Z"/><path class="cls-8" d="M374,328.87c-3.56-17.17-11.45-32.94-11.55-50.74q-.07-12.63-.61-25.24-.29-6.44-.69-12.87c-.25-3.77-1.17-8-.57-11.76,2.37-14.78-1.23-31.5-5.63-45.68-1.49-4.81-2.3-7.33-7.3-9.09a68.4,68.4,0,0,0-18.9-3.63c-5-.29-11.61.82-16.12-1.85-2.9,7.5-8.15,13.84-13.65,19.69a199.73,199.73,0,0,1-29.9,26c-7.49,5.31-14.88,10.8-22.77,15.51-1.89,1.13-3.79,2.24-5.75,3.22-1.56.79-3.19.91-4.76,1.59-4.44,2-8.67,4.72-12.93,7,.47-.26-1.5-6.76-1.7-7.47a70.65,70.65,0,0,0-2.64-7.53c-1.87-4.47-4.43-8.57-6.5-12.91-1.74-3.67-6.43-6.62-9.83-8.63a36,36,0,0,0-38,.57A56.24,56.24,0,0,0,137.3,249a57.42,57.42,0,0,0,9.28,35.35,45.27,45.27,0,0,1-12.86-13c1.43,2.2,1.75,4.8,2.78,7.15a18.13,18.13,0,0,0,4.37,5.66c5.55,5.34,13.58,6.7,21.08,6.23A65.19,65.19,0,0,0,180.61,286c-10.81,4.05-22.53-3.58-28.05-12.5-6.89-11.13-8.21-25.77-2.55-37.58,6.72-14,22.27-22,37.39-18.48,9.71,2.23,16.77,8.92,21.35,17.65,1.55,2.94,7.27,16.39,4.69,19.76,2.82-3.69,6-7.95,11.12-7.22,5.58.8,10.14,5.54,13.89,9.37,6.21,6.32,5.93,15.24,11.76,22,10.09,11.67,24,16,39,15.91a64.45,64.45,0,0,0,21.41-4c7.2-2.61,12.74-6.06,19.08-10.38A47.55,47.55,0,0,1,290,298.77c9.17,3.12,19.13,2.66,28.76,1.67,3.22-.32,6.63-.79,9.09-2.88,0,9.52,2.13,18.36,2,28a162.37,162.37,0,0,1-3.05,29.83,159.87,159.87,0,0,1-22.16,55.44c.68-1.07,7.69,16.39,7.83,18.51a169.13,169.13,0,0,1,.54,20.76c-.73,12.41-4,25.07-11.22,35.36-3.1,4.44-18.84,17-24.18,9.71-.74-1,0-2.4.89-3.29,2.84-3,11.56-7.67,15.7-5.69A14.1,14.1,0,0,1,298,473.41c-7.89,4.21-17.59,4.31-26.28,5.31a186.46,186.46,0,0,1-39.94.29C218.64,477.7,206,474.4,193,472.25c2.54,3.5,4.31,12,8.47,13.4,4,1.36,10-1.52,14.2-1.18,6.05.48,12,1.86,18.08,2.13,12,.53,24,.69,36,.69,4.9,0,9.8-.14,14.67-.62a28.47,28.47,0,0,0-6.9,5.46c-1,1.09-2,2.41-1.88,3.89a4,4,0,0,0,2.55,3.22,5.14,5.14,0,0,0,.94.3,10.85,10.85,0,0,0,3.32.2,34.08,34.08,0,0,0,15.93-5.29l.16.24c-.41,1.78-.68,4,.78,5.11,1.31,1,3.17.4,4.63-.33,5.1-2.58,9.32-6.56,13.08-10.89,7.11.3,14.33.63,21.14,2.6a58.39,58.39,0,0,1,15.15-2.12c12.72-22.85,18.88-52,22.55-77.67C379.75,384.07,379.62,355.94,374,328.87ZM253.75,268.11A41.94,41.94,0,0,1,252.53,246a31.53,31.53,0,0,1,3.26-9.26,27.66,27.66,0,0,1,9.2-9.46c10.42-6.74,23.79-7.39,36-5,6.09,1.2,12.16,3.15,17.19,6.81a29.87,29.87,0,0,1,11,31,33.05,33.05,0,0,1-3.52,8.29,61.68,61.68,0,0,1-11.53,13.54c-5.6,5.19-11.59,6.7-19,7.63a64.23,64.23,0,0,1-13.07.49C269.63,289,257.88,279.88,253.75,268.11Z"/><path class="cls-12" d="M222.46,253.35a19.25,19.25,0,0,1,1.79-1.58l-3.09-4.72c-.62.95-1.75,1.2-2.61,1.84a52.33,52.33,0,0,0-7.58,8.43,36.64,36.64,0,0,0-4.11,10.49c-1.13,4.93-2.08,9.32-.79,14.31a26.91,26.91,0,0,0,7.47,12.76,48.85,48.85,0,0,1,4.54-35.46A27.13,27.13,0,0,1,222.46,253.35Z"/><path class="cls-6" d="M86.08,399.37c1.76-12.48,6.75-24.5,12.45-35.84,4-7.94,8.24-15.51,13.9-22.28,2.88-3.44,5.28-7.14,8.44-10.38,2.28-2.33,6.09-7,9.26-8l-9.48,3c-.63.19-1.53.26-1.73-.37a1.21,1.21,0,0,1,.23-1,16.32,16.32,0,0,1,8.27-7,22.12,22.12,0,0,1-5,.71,1.74,1.74,0,0,1-1.48-.44A1.67,1.67,0,0,1,121,316c1.48-3.14,4.48-5.23,7.25-7.33a4.37,4.37,0,0,0,1.72-2,4.46,4.46,0,0,0,0-1.82c-2.14-17.22,2.27-35.34,5.79-52.26a175.48,175.48,0,0,1,24.8-60c1-1.53,8.33-13.93,9.79-13.61,22,4.78,44.71,5.85,67.22,5.33,5.1-.12,64.22-3.13,64-5a12.46,12.46,0,0,1,1.86-8.22,164.06,164.06,0,0,1-26.58,3.38c-8.24.36-16.32,1.34-24.62,1.32-13.63,0-27.26,0-40.86-.88s-26.84-3.47-40.24-6a2.62,2.62,0,0,0-1.39,0,2.53,2.53,0,0,0-1.08,1c-10.08,13.35-21.56,27.54-27.71,43.16a303.9,303.9,0,0,0-14.43,49.29c-1.8,8.56-3.29,17.19-4.58,25.85s-2.37,17.24-3.31,25.88c0,.1-3.95,1.4-4.33,1.56a25.55,25.55,0,0,0-4.31,2.39,15.27,15.27,0,0,0-3,3,26.87,26.87,0,0,1-4.1,3.31,34.8,34.8,0,0,1,14.6-3c-4.06,1.88-7.63,4.63-11.74,6.37A14.4,14.4,0,0,0,99,334.6a111.9,111.9,0,0,1,10.49-5.43,12.29,12.29,0,0,1,4.29-1.2c-4.12,3.24-7.15,7.95-10.23,12.14a126.27,126.27,0,0,0-9.09,14,188.33,188.33,0,0,0-13.53,31.08A27.45,27.45,0,0,0,79,394.8a23.45,23.45,0,0,0,2.21,8.44c.63,1.43,4.19,4.35,4.19,5.58A67.71,67.71,0,0,1,86.08,399.37Z"/><path class="cls-4" d="M217.24,256.56a34.18,34.18,0,0,0-6.71,8.74,22.85,22.85,0,0,0-2,5.62c-.3,1.43-.6,4.15.92,5.05a.54.54,0,0,0,.55,0,4.06,4.06,0,0,0,1.32-2.68c.17-.86.33-1.72.52-2.57a31.12,31.12,0,0,1,1.48-4.72,70.9,70.9,0,0,1,4.53-9.06C218.06,256.58,217.51,256.3,217.24,256.56Z"/><path class="cls-4" d="M210.87,283.67a7.74,7.74,0,0,0-.1-1.19c-.12-.43-.27-.85-.38-1.28,0-.2-.1-.39-.14-.59a5.8,5.8,0,0,0-.27-.87c-.06-.15-.1-.31-.15-.46a2.75,2.75,0,0,0-.62-.88.3.3,0,0,0-.47,0,3.61,3.61,0,0,0-.56.74,1.53,1.53,0,0,0-.11.47c0,.26-.1.52-.13.78a5.36,5.36,0,0,0,.12,1.49,4.91,4.91,0,0,0,.48,1.81,8.17,8.17,0,0,0,.81,1.1.9.9,0,0,0,1.14.32.94.94,0,0,0,.43-1C210.92,284,210.88,283.81,210.87,283.67Z"/><path class="cls-3" d="M127.37,348.06c.38,11.3.33,22.58.17,33.86-.06,5.63-.26,11.32-.27,16.89a58.66,58.66,0,0,0,.58,8.21,53.16,53.16,0,0,0,1.91,8,156.13,156.13,0,0,0,6.18,15.55c2.28,5.12,4.72,10.17,7.37,15.1a230.88,230.88,0,0,0,18.16,28.23l-1.5,1.22a149.78,149.78,0,0,1-19.28-28c-2.71-5-5.21-10.1-7.53-15.27a137.49,137.49,0,0,1-6.3-15.89,57.76,57.76,0,0,1-1.93-8.47,53.62,53.62,0,0,1-.46-8.65c0-2.87.18-5.68.29-8.5l.37-8.45C125.66,370.58,126.31,359.31,127.37,348.06Z"/><path class="cls-3" d="M122.89,313.2a43.13,43.13,0,0,0-6.66,2.7,34.58,34.58,0,0,0-5.87,3.78,29.75,29.75,0,0,0-2.59,2.3c-.42.39-.82.81-1.22,1.23-.2.21-.38.44-.57.66l-.53.6a1.85,1.85,0,0,0-.3.49c-.08.16-.06.28-.1.22s-.2-.13-.16-.09a1.77,1.77,0,0,0,.64,0c1.21,0,2.43-.12,3.66-.09l.13.88c-1.16.39-2.34.69-3.52,1a3.69,3.69,0,0,1-1.17.14,1.84,1.84,0,0,1-1.54-1.12,2.52,2.52,0,0,1,0-1.58,4.25,4.25,0,0,1,.49-1.13c.12-.19.22-.32.31-.44l.29-.38c.19-.25.38-.51.59-.75.41-.48.82-1,1.26-1.41a25.11,25.11,0,0,1,2.87-2.49,23.81,23.81,0,0,1,6.69-3.47A20,20,0,0,1,122.89,313.2Z"/><path class="cls-3" d="M116,322.12c-2.39,1.45-4.81,2.81-7.08,4.33a33.94,33.94,0,0,0-6.2,5.12,21.36,21.36,0,0,0-2.39,3.1,16.37,16.37,0,0,0-1,1.67c-.13.3-.28.58-.4.87l-.18.4c0,.08,0,0,0-.19a.71.71,0,0,0-.35-.47c-.11,0-.08,0,0,0a1,1,0,0,0,.3,0l.51,0,2-.21,4-.52.4,1.54a25.77,25.77,0,0,1-4.06,1.25c-.7.17-1.4.29-2.1.39l-.53.08a3.74,3.74,0,0,1-.72.05,2.39,2.39,0,0,1-1-.26,1.89,1.89,0,0,1-1-1.25,2.22,2.22,0,0,1,.11-1.21c.09-.25.15-.37.23-.56.14-.35.3-.68.47-1a19.34,19.34,0,0,1,1.15-1.91,21.65,21.65,0,0,1,2.87-3.31,28.84,28.84,0,0,1,7.09-4.79A58.47,58.47,0,0,1,116,322.12Z"/><path class="cls-3" d="M114.36,328.2c-5.36,4.62-9.15,10.36-12.81,16.28a192.49,192.49,0,0,0-10.06,18.3,201.28,201.28,0,0,0-8,19.28,58.72,58.72,0,0,0-2.88,9.81,15.09,15.09,0,0,0,0,4.79A24.06,24.06,0,0,0,82,401.42,64.94,64.94,0,0,0,92.6,419a81.67,81.67,0,0,0,15.19,14,108.41,108.41,0,0,0,37.74,16.89l-.46,2a105,105,0,0,1-38.8-16.79A84.55,84.55,0,0,1,90.5,420.74a67.84,67.84,0,0,1-11.14-18.28,25.75,25.75,0,0,1-1.56-5.32,17.75,17.75,0,0,1,0-5.68,33.47,33.47,0,0,1,1.3-5.33c.55-1.71,1.12-3.36,1.71-5A174.13,174.13,0,0,1,89,361.59a189.72,189.72,0,0,1,10.42-18.44,60.64,60.64,0,0,1,6.47-8.47A29.16,29.16,0,0,1,114.36,328.2Z"/><path class="cls-3" d="M292.25,485.54a47.47,47.47,0,0,1-11.34,2.52c-3.86.43-7.73.5-11.59.55-7.68.09-15.37.09-23.06-.07s-15.39-.51-23.07-1c-3.85-.23-7.68-.58-11.52-1s-7.66-.83-11.47-1.35l.29-2.48c3.81.34,7.62.72,11.44,1s7.63.52,11.45.78c7.64.49,15.29.76,23,1s15.32.34,23,.45S284.5,485.74,292.25,485.54Z"/><path class="cls-3" d="M195.22,476.9a43.46,43.46,0,0,1,4.87,5.36A32.43,32.43,0,0,1,204,488.5a12.25,12.25,0,0,1,1,7.75,9.64,9.64,0,0,1-1.76,3.75,7.54,7.54,0,0,1-3.5,2.57,7.15,7.15,0,0,1-4.41.06,11,11,0,0,1-3.63-1.94,17.21,17.21,0,0,1-4.74-6.1,18.82,18.82,0,0,1-.73-14.57c.19,4.84,1,9.43,3.07,13.39a17,17,0,0,0,1.85,2.73,17.55,17.55,0,0,0,2.33,2.24c1.68,1.28,3.68,2,5.33,1.41a6.09,6.09,0,0,0,3.6-4.2,7.53,7.53,0,0,0,.26-1.48,10.46,10.46,0,0,0,0-1.58,13.63,13.63,0,0,0-.75-3.2,42.42,42.42,0,0,0-3-6.28C197.75,481,196.52,478.93,195.22,476.9Z"/><path class="cls-3" d="M186.7,487.87a25.43,25.43,0,0,1-9.27,7,14.66,14.66,0,0,1-6,1.45,8.61,8.61,0,0,1-3.25-.65,6.8,6.8,0,0,1-2.77-2.06,8,8,0,0,1-1.34-6.38,11.65,11.65,0,0,1,2.91-5.38,21.26,21.26,0,0,1,9.61-6.09,31,31,0,0,0-8,7.41,10.54,10.54,0,0,0-2,4.51,5.33,5.33,0,0,0,1,4.21,5,5,0,0,0,3.9,1.59,12.48,12.48,0,0,0,4.82-1.2,27.07,27.07,0,0,0,8.71-5.95Z"/><path class="cls-3" d="M166.78,475.8a42.48,42.48,0,0,0-15,.53,34.84,34.84,0,0,0-7.1,2.12,14.24,14.24,0,0,0-3,1.72,5.62,5.62,0,0,0-1.84,2.37,1.7,1.7,0,0,0-.08,1,2.07,2.07,0,0,0,.68.89,7,7,0,0,0,2.85,1.43,28.33,28.33,0,0,0,7.27.54A69.6,69.6,0,0,0,165.43,484l.58,1.77A48.86,48.86,0,0,1,150.66,489a30,30,0,0,1-8.07-.49,9.73,9.73,0,0,1-4-2A4.68,4.68,0,0,1,137,484.4a4.54,4.54,0,0,1,.1-2.77A8.28,8.28,0,0,1,139.9,478a14.17,14.17,0,0,1,3.7-2.07,38.44,38.44,0,0,1,7.72-2.05,31.36,31.36,0,0,1,7.92-.28A18.61,18.61,0,0,1,166.78,475.8Z"/><path class="cls-13" d="M353.06,489.48c12.87-22.93,19.09-52.27,22.78-78.09,3.91-27.32,3.77-55.45-1.85-82.53-3.57-17.16-11.45-32.94-11.56-50.74-.09-16.07-.42-32.16-1.44-48.2-.93-14.74-1.38-30.85-4.8-45.2-1-4.12-3-8.13-6.42-10.66-4-3-9.19-3.55-14.14-3.81-28-1.45-55.39,5.61-83.43,5.54-14.14,0-28.3,0-42.41-1-7.54-.54-15-1.74-22.44-2.94-6.91-1.11-14-2.38-21-2.4C161,171.6,158,177,155.15,182c-1.57,2.77-3.06,5.6-4.48,8.46-19.12,38.57-27.45,81.21-32.09,123.73"/><g class="cls-14"><path class="cls-3" d="M173.94,286.32a12.9,12.9,0,0,1-5.31,3.7,21.45,21.45,0,0,1-6.43,1.35,37.16,37.16,0,0,1-13-1.43,23.13,23.13,0,0,1-6-2.89,21.14,21.14,0,0,1-4.83-4.56,20.51,20.51,0,0,1-4.43-12.1,24.48,24.48,0,0,0,5.63,11.11A22.35,22.35,0,0,0,149.81,288a34.46,34.46,0,0,0,6.08,1.32,45.25,45.25,0,0,0,6.26.47C166.28,289.8,170.58,289.07,173.94,286.32Z"/></g><path class="cls-3" d="M225.05,285.08a27.85,27.85,0,0,1-3.34,9,37.6,37.6,0,0,1-5.76,7.78h0l-.78.8-.89-.72a30.52,30.52,0,0,1-9.44-13.36,29.94,29.94,0,0,1-1.12-16.32,41.24,41.24,0,0,1,6.76-14.75A82,82,0,0,1,221,245.36h0l.38-.4.54.22a40.56,40.56,0,0,1,11.48,6.92,36.67,36.67,0,0,1,8.48,10.49A38.94,38.94,0,0,1,245.53,289h0l-.12.54-.44.26a27,27,0,0,1-11,3.38,31.19,31.19,0,0,1-11.34-.93l.36-1.38a29.4,29.4,0,0,0,10.74.36,24.7,24.7,0,0,0,9.93-3.55l-.56.81h0a38.4,38.4,0,0,0-3.31-24.79,34.53,34.53,0,0,0-7.76-10,40.71,40.71,0,0,0-10.78-6.93l.92-.18h0c-1.79,1.92-3.53,3.89-5.18,5.92a68.73,68.73,0,0,0-4.67,6.26,40.7,40.7,0,0,0-6.11,14,27.28,27.28,0,0,0,1.08,14.92,29.4,29.4,0,0,0,8.6,12.31l-1.68.07h0a53.64,53.64,0,0,0,6.1-6.9A46.26,46.26,0,0,0,225.05,285.08Z"/><path class="cls-3" d="M285,487.17a29.21,29.21,0,0,0-5.82,4.56,12.5,12.5,0,0,0-2.19,2.73,2.32,2.32,0,0,0,.07,2.56,3.76,3.76,0,0,0,2.49,1.46,11.2,11.2,0,0,0,3.47,0,29,29,0,0,0,7.13-1.61c1.17-.39,2.28-.89,3.41-1.37l1.65-.83c.55-.27,1.06-.61,1.61-.9a50,50,0,0,0,6.13-4.15,73,73,0,0,0,5.63-4.95c1.8-1.77,3.51-3.63,5.24-5.54a42.26,42.26,0,0,1-9.34,12.29A36.53,36.53,0,0,1,291,499.37a31.68,31.68,0,0,1-7.78,1.49,13.2,13.2,0,0,1-4.13-.16,6,6,0,0,1-3.8-2.5,4.3,4.3,0,0,1-.71-2.39,4.9,4.9,0,0,1,.65-2.29,13.77,13.77,0,0,1,2.66-3.13,27.81,27.81,0,0,1,6.4-4.53Z"/><path class="cls-3" d="M299.73,495a6.55,6.55,0,0,0-.07,3.13c.28.67.74.91,1.65.79a9.87,9.87,0,0,0,3.08-1.29,33.46,33.46,0,0,0,3.13-2A63.19,63.19,0,0,0,318.35,485a129.49,129.49,0,0,0,9.15-12.4c1.42-2.15,2.77-4.36,4-6.61s2.5-4.54,3.7-6.85c-.81,2.47-1.78,4.9-2.81,7.3s-2.22,4.73-3.45,7a97.21,97.21,0,0,1-8.63,13.14,55.86,55.86,0,0,1-11.16,11.31,33.53,33.53,0,0,1-3.41,2.19,11.38,11.38,0,0,1-4.1,1.6,4.44,4.44,0,0,1-2.73-.47,3.91,3.91,0,0,1-1.82-2.23,8.24,8.24,0,0,1,.16-4.56Z"/><g class="cls-15"><path class="cls-3" d="M155.13,356.62a33.55,33.55,0,0,0-3.63,5.8,26.45,26.45,0,0,0-2.13,6.3,12.27,12.27,0,0,0,0,6.34,5.82,5.82,0,0,0,1.72,2.56,4.83,4.83,0,0,0,3,1.25,4.46,4.46,0,0,1-3.56-.44,6.28,6.28,0,0,1-2.61-2.76,9.36,9.36,0,0,1-.87-3.69,15.89,15.89,0,0,1,.33-3.66,19.33,19.33,0,0,1,2.74-6.67A16.48,16.48,0,0,1,155.13,356.62Z"/><path class="cls-3" d="M166.48,361c-.18,3.06-.54,6.07-.72,9.05a44.12,44.12,0,0,0,.2,8.84,24.79,24.79,0,0,0,.92,4.24c.42,1.32,1.13,2.44,2.2,2.67a6.67,6.67,0,0,0,3.87-1,10.79,10.79,0,0,0,3.34-2.89,9,9,0,0,1-2.8,3.7,10.05,10.05,0,0,1-2.07,1.24,5.17,5.17,0,0,1-2.56.48,3.74,3.74,0,0,1-2.47-1.34,7.65,7.65,0,0,1-1.29-2.23,24.29,24.29,0,0,1-1.12-4.6,31.73,31.73,0,0,1,.24-9.29A53,53,0,0,1,166.48,361Z"/><path class="cls-3" d="M181.16,362.37c1.23,2.46,2.29,4.95,3.43,7.38a67.82,67.82,0,0,0,3.71,7.08,22.66,22.66,0,0,0,4.92,6,6,6,0,0,0,3.32,1.49,4.65,4.65,0,0,0,3.65-1,4.59,4.59,0,0,1-3.67,1.95,6.67,6.67,0,0,1-4.21-1.2,15.71,15.71,0,0,1-3.23-2.8,26.45,26.45,0,0,1-2.49-3.4,37.91,37.91,0,0,1-3.44-7.54A48.53,48.53,0,0,1,181.16,362.37Z"/><path class="cls-3" d="M203.76,366.77a97.41,97.41,0,0,0,4,9.08c.77,1.45,1.53,2.92,2.39,4.28a15.64,15.64,0,0,0,2.91,3.65,7.85,7.85,0,0,0,3.88,2,5.93,5.93,0,0,0,2.14.06,5.48,5.48,0,0,0,2-.79,16.18,16.18,0,0,0,3.34-3.37,30.66,30.66,0,0,0,2.75-4.11,19.32,19.32,0,0,1-1.94,4.66,14.61,14.61,0,0,1-3.23,4.08,6.31,6.31,0,0,1-2.54,1.25,7.82,7.82,0,0,1-2.81.09,9.66,9.66,0,0,1-4.9-2.41,16.74,16.74,0,0,1-3.2-4.18,41,41,0,0,1-2.17-4.6A38.67,38.67,0,0,1,203.76,366.77Z"/><path class="cls-3" d="M215.37,402.87c1.16,1.49,2.25,2.95,3.45,4.27a18.84,18.84,0,0,0,4,3.39,12.32,12.32,0,0,0,4.73,1.73,10.12,10.12,0,0,0,5.23-.58,7.35,7.35,0,0,1-5.31,2.14,10.35,10.35,0,0,1-5.71-1.6,13.42,13.42,0,0,1-4.12-4.13A16,16,0,0,1,215.37,402.87Z"/><path class="cls-3" d="M191.48,404.05c.66,2.12,1.16,4.24,1.77,6.29a31.76,31.76,0,0,0,2.26,5.86,15.86,15.86,0,0,0,1.59,2.59,3.74,3.74,0,0,0,2.13,1.49,5.49,5.49,0,0,0,2.85-.26,25.92,25.92,0,0,0,3-1.21,12.5,12.5,0,0,1-2.61,2.11,5.85,5.85,0,0,1-3.48.9,4.23,4.23,0,0,1-1.88-.59,6.2,6.2,0,0,1-1.46-1.21,16.25,16.25,0,0,1-1.93-2.9,20.9,20.9,0,0,1-2-6.45A29.35,29.35,0,0,1,191.48,404.05Z"/><path class="cls-3" d="M169.74,405.21c.3,2.44.64,4.81,1.14,7.14.27,1.15.51,2.35.86,3.43a7.52,7.52,0,0,0,1.44,2.82,3.07,3.07,0,0,0,2.46,1.1,7.73,7.73,0,0,0,3.12-.79,27.24,27.24,0,0,0,6-3.82,15.61,15.61,0,0,1-5.3,5.2,8.31,8.31,0,0,1-3.79,1.3,4.89,4.89,0,0,1-2.18-.36,5.09,5.09,0,0,1-1.82-1.3,8.78,8.78,0,0,1-1.76-3.64,25.53,25.53,0,0,1-.59-3.71A24.3,24.3,0,0,1,169.74,405.21Z"/><path class="cls-3" d="M153.12,329.93a22.34,22.34,0,0,0-.84,4.17,6.68,6.68,0,0,0,.66,3.65,5.19,5.19,0,0,0,2.59,2.41,4,4,0,0,0,1.84.3,6.21,6.21,0,0,0,2-.56,4.07,4.07,0,0,1-1.78,1.51,4.27,4.27,0,0,1-2.48.26,5.68,5.68,0,0,1-4-3,6,6,0,0,1-.68-2.44,7.15,7.15,0,0,1,.26-2.41A8.36,8.36,0,0,1,153.12,329.93Z"/><path class="cls-3" d="M179.29,341.48c.51,1.59.92,3.22,1.84,4.2a3.11,3.11,0,0,0,1.58,1,1.87,1.87,0,0,0,1.52-.34,12.21,12.21,0,0,0,1.63-1.46c.57-.54,1.08-1.14,1.62-1.72,1.06-1.18,2.05-2.44,3.12-3.74a13.9,13.9,0,0,1-1.86,4.67,17.59,17.59,0,0,1-1.48,2.06,9.55,9.55,0,0,1-1.93,1.86,4.14,4.14,0,0,1-1.49.61,3.39,3.39,0,0,1-1.65-.13,4.38,4.38,0,0,1-2.31-1.85A7.17,7.17,0,0,1,179.29,341.48Z"/><path class="cls-3" d="M209.86,346.22c1.11,1.52,2.18,3,3.34,4.32a12,12,0,0,0,1.78,1.78,2.92,2.92,0,0,0,1.93.62,11.85,11.85,0,0,0,4.67-1.61c1.55-.84,3.07-1.88,4.72-2.78a19.42,19.42,0,0,1-3.87,4.08,13.25,13.25,0,0,1-2.47,1.53,7.52,7.52,0,0,1-3,.78,5,5,0,0,1-1.7-.27,4.86,4.86,0,0,1-1.46-.88,9.86,9.86,0,0,1-1.84-2.34A15.4,15.4,0,0,1,209.86,346.22Z"/></g><path class="cls-3" d="M215.34,251.42a.56.56,0,0,0-.13-.35.44.44,0,0,0-.11-.35.71.71,0,0,0-.59-.57h0a25.68,25.68,0,0,0,.2-4.55A32,32,0,0,0,210.35,232a39.6,39.6,0,0,0-8.77-11.34c-5.21-4.35-12.08-6.48-18.76-7.07s-13,1.12-19.09,4.14a34.07,34.07,0,0,0-10.27,7.84c-6.13,6.91-9.07,16-9.37,25.21-.41,12.85,6.29,27.69,18.07,33.59,11.63,5.81,26.08,4.41,37-2.4,2.46-1.54,5-3.88,4.68-6.76-1.2,3.23-4.51,5.11-7.64,6.56-12.84,5.9-30,7.12-40.35-4.34-7.17-8-10.06-20-8.13-30.44a33.45,33.45,0,0,1,14.64-22.18c6.83-4.6,16.61-8.3,24.81-5.44,9,3.15,17.08,8.41,21.4,17.27a28.64,28.64,0,0,1,.17,24.83c1.75-2.3,3.95-4.51,4.85-7.28,0-.13.07-.26.11-.39a.42.42,0,0,0,.2.1.59.59,0,0,0,.65-.27q.18-.44.33-.87A2.25,2.25,0,0,0,215.34,251.42Z"/><path class="cls-3" d="M331.09,248.34a31.47,31.47,0,0,0-4.85-13.79c-11.72-18.47-34.87-22.8-54.28-14.41A39.54,39.54,0,0,0,260,228.06a37.08,37.08,0,0,0-10.91,25.46c-.48,13,7.32,28,21,33.92a48.69,48.69,0,0,0,27.31,2.94,40.2,40.2,0,0,0,18.88-8.47c6.25-5.09,9.86-11.48,12.73-19A31.73,31.73,0,0,0,331.09,248.34Zm-6.79,19.54a46.49,46.49,0,0,1-2.56,5C316,282.6,306.87,286.9,296,288.58c-10,1.54-20.9.7-29.44-5.09a28.42,28.42,0,0,1-3.78-3.06,33.72,33.72,0,0,1-9.47-30.74c2-9.49,8-17.11,17-22.4,8-4.65,19.34-8.39,28.88-5.5,10.53,3.18,19.89,8.5,24.92,17.45S328.33,258.72,324.3,267.88Z"/><g class="cls-14"><path class="cls-3" d="M290,298.92a74.57,74.57,0,0,0,14.35-.57A52.38,52.38,0,0,0,318,294.61a33.1,33.1,0,0,0,11.45-8,29.43,29.43,0,0,0,6.55-12.5,24.77,24.77,0,0,1-5.36,13.51,27.89,27.89,0,0,1-5.39,5.13,35.76,35.76,0,0,1-6.45,3.67,45.24,45.24,0,0,1-14.29,3.46A48.08,48.08,0,0,1,290,298.92Z"/></g><path class="cls-3" d="M203.14,488.64c3.71.56,7.59.7,11.44,1.51a42.92,42.92,0,0,1,5.67,1.54,15.4,15.4,0,0,1,5.24,3,13.84,13.84,0,0,1,2,2.33,27.12,27.12,0,0,1,1.52,2.6,39.69,39.69,0,0,1,2.18,5.47c.57,1.85,1.09,3.7,1.59,5.52l.1.34c0,.15.09.36.11.54a3.36,3.36,0,0,1-.06,1.14,3.36,3.36,0,0,1-2.17,2.45l-.27.08-.18,0-.36.09-1.41.34A65.64,65.64,0,0,1,205.34,517a56.53,56.53,0,0,1-5.76-1c-1-.21-1.89-.49-2.84-.74a20.15,20.15,0,0,0-2.59-.66,6.12,6.12,0,0,0-2.38.17c-.85.21-1.81.49-2.73.74-1.85.49-3.71,1-5.57,1.44a148.93,148.93,0,0,1-22.74,4,89.07,89.07,0,0,1-23.17-.76c-1.91-.32-3.81-.74-5.7-1.21-.94-.24-1.88-.51-2.81-.79a5.31,5.31,0,0,1-1.66-.78,5,5,0,0,1-1.3-1.38,5,5,0,0,1-.68-1.78,4.3,4.3,0,0,1-.07-.95,5,5,0,0,1,.1-.88c.16-1,.35-1.93.58-2.88a43.32,43.32,0,0,1,7.48-15.82,31.44,31.44,0,0,1,8.92-7.83l1,2.27a18.16,18.16,0,0,0-8.6,6.6,34.42,34.42,0,0,0-5.09,9.9,45.54,45.54,0,0,0-1.44,5.39c-.2.91-.35,1.82-.48,2.74a3.24,3.24,0,0,0,0,.55,2.42,2.42,0,0,0,0,.47,2.67,2.67,0,0,0,.36.87,2.55,2.55,0,0,0,.66.69,2.7,2.7,0,0,0,.92.42c.9.26,1.8.52,2.71.75,1.82.45,3.65.85,5.51,1.15a88.77,88.77,0,0,0,22.51.7,148.58,148.58,0,0,0,22.37-3.91c1.84-.45,3.68-.94,5.51-1.44.93-.25,1.8-.51,2.81-.76a8.78,8.78,0,0,1,3.3-.23,22.49,22.49,0,0,1,3,.73c.9.24,1.79.51,2.71.7a53.83,53.83,0,0,0,5.51,1A64.47,64.47,0,0,0,228,513.21l1.37-.33.34-.08.17,0,.07,0a1.3,1.3,0,0,0,.26-.14.87.87,0,0,0,.3-.49.67.67,0,0,0,0-.28c0-.06,0-.09,0-.16l-.1-.35c-.53-1.86-.95-3.72-1.45-5.53a36.78,36.78,0,0,0-1.73-5.29,13.1,13.1,0,0,0-2.94-4.44c-2.63-2.34-6.41-3.28-10-4a112,112,0,0,0-11.34-1Z"/><path class="cls-3" d="M138.47,484.3a57.48,57.48,0,0,0-10.74.06,27.08,27.08,0,0,0-10.11,3,34,34,0,0,0-4.42,2.91,45.4,45.4,0,0,0-3.94,3.52,82.31,82.31,0,0,0-7.05,8c-1.08,1.41-2.15,2.84-3.18,4.3a13.24,13.24,0,0,0-1.31,2.08,2.32,2.32,0,0,0-.26,1.64c.17.78,1.9,1.62,3.43,2.08a32.07,32.07,0,0,0,5.09,1,93.49,93.49,0,0,0,21.28.45l.26,2.48a86.85,86.85,0,0,1-21.91-.22,34,34,0,0,1-5.53-1.09,13.44,13.44,0,0,1-2.76-1.17,6.24,6.24,0,0,1-1.37-1,4.26,4.26,0,0,1-1-1.67,4.17,4.17,0,0,1-.13-2,6.58,6.58,0,0,1,.54-1.64,15.59,15.59,0,0,1,1.58-2.48c1.07-1.48,2.18-2.92,3.31-4.36a57.14,57.14,0,0,1,7.53-8,39.41,39.41,0,0,1,9.29-6A38.28,38.28,0,0,1,127.55,483c3.62-.58,7.26-.83,10.87-1.24Z"/><path class="cls-3" d="M192.7,512c7-.58,14-1,20.89-1.9-6.84,1.48-13.77,2.56-20.65,3.75Z"/><path class="cls-3" d="M279.86,500.75a23.35,23.35,0,0,0-5.63,7.72,25.6,25.6,0,0,0-1.19,3,6.4,6.4,0,0,0-.4,2.71c.08.35.13.38.25.45l.18.06.4.11.8.21a57.29,57.29,0,0,0,6.49,1.29,51.32,51.32,0,0,0,13.16.2,45.74,45.74,0,0,0,6.46-1.24,10.9,10.9,0,0,1,3.73-.58,17.86,17.86,0,0,1,3.54.85,131.52,131.52,0,0,0,26.2,5.37,65.56,65.56,0,0,0,26.22-2.72h0l-.85,1.26a31.15,31.15,0,0,0-3.76-13.87,26.56,26.56,0,0,0-10-10.15,39.78,39.78,0,0,0-13.83-4.48,121.53,121.53,0,0,0-14.85-1.13l.11-2.5A143.37,143.37,0,0,1,332,488.64a42.51,42.51,0,0,1,14.58,4.84,29.69,29.69,0,0,1,10.89,11,35,35,0,0,1,4.24,14.85l.07,1-.92.29h0a68.09,68.09,0,0,1-27.22,2.84,134,134,0,0,1-26.7-5.46,16.65,16.65,0,0,0-3-.76,8.9,8.9,0,0,0-2.89.51,48,48,0,0,1-6.82,1.3,54,54,0,0,1-13.8-.2,62.35,62.35,0,0,1-6.77-1.35l-.83-.22-.41-.11a3.74,3.74,0,0,1-.62-.23,2.93,2.93,0,0,1-1.12-1,3.56,3.56,0,0,1-.48-1.24,8.71,8.71,0,0,1,.47-3.93,31.1,31.1,0,0,1,1.3-3.28,26.13,26.13,0,0,1,1.68-3.13,25.73,25.73,0,0,1,4.57-5.42Z"/><path class="cls-3" d="M337.52,490.38a68.12,68.12,0,0,1,11.1-2,44,44,0,0,1,11.34.36,32.8,32.8,0,0,1,10.75,3.76,38.93,38.93,0,0,1,9,7,49.44,49.44,0,0,1,3.74,4.3,26,26,0,0,1,3.07,5,13,13,0,0,1,1,2.92,7.17,7.17,0,0,1-.11,3.37c-.1.29-.2.55-.34.86a3.53,3.53,0,0,1-.63.87,5.35,5.35,0,0,1-1.46,1.06,13.42,13.42,0,0,1-2.9,1.07,43.66,43.66,0,0,1-5.7.85c-1.89.18-3.77.28-5.66.32a73.58,73.58,0,0,1-11.3-.67l.31-2.48a79.83,79.83,0,0,0,10.93.49q2.75-.06,5.46-.33a41.81,41.81,0,0,0,5.32-.75,10.26,10.26,0,0,0,2.32-.83,2.92,2.92,0,0,0,.79-.54,1.4,1.4,0,0,0,.2-.26c0-.11.12-.28.17-.43a7,7,0,0,0-.65-4.52,35.32,35.32,0,0,0-6-8.84,30.77,30.77,0,0,0-3.91-3.75,28.86,28.86,0,0,0-4.45-3.07,31.34,31.34,0,0,0-10.17-3.59c-7.16-1.25-14.6-.3-21.65,1.66Z"/><polygon class="cls-3" points="303.69 516.73 286.75 512.9 303.96 514.88 303.69 516.73"/><path class="cls-3" d="M250.43,260.39c1.27-1.09,2.53-2.17,3.77-3.28l3.87-3.15,4-3,4.07-2.86a114.62,114.62,0,0,1,17.38-9.71,93.23,93.23,0,0,1,19-6.12l4.94-.87,5-.54,5-.28c1.68,0,3.36,0,5.05,0l-.35,4.2c-1.59-.17-3.17-.32-4.77-.46l-4.79-.1-4.8.3-4.77.61a75,75,0,0,0-18.45,5.64,91,91,0,0,0-16.7,9.78L264,253.5l-3.71,3.13-3.54,3.3q-1.71,1.72-3.38,3.47Z"/><path class="cls-3" d="M210.34,258.25c-1.59-2.29-3.3-4.47-5.08-6.56a58.33,58.33,0,0,0-5.85-5.81,76.9,76.9,0,0,0-13.72-9.35,58.65,58.65,0,0,0-15.47-5.78,49.37,49.37,0,0,0-16.34-.77l-.25-4.2a68.87,68.87,0,0,1,17.26,2.13,73.35,73.35,0,0,1,16,6.28,101.52,101.52,0,0,1,14.42,9.34,91.59,91.59,0,0,1,12.31,12.12Z"/><path class="cls-3" d="M170.67,517.51a41.37,41.37,0,0,0,4.39-3.39,39.65,39.65,0,0,0,3.86-4,89.89,89.89,0,0,0,6.3-9.39A33.76,33.76,0,0,1,180.09,511a31.47,31.47,0,0,1-3.82,4.42,32,32,0,0,1-4.56,3.65Z"/><g class="cls-16"><path class="cls-5" d="M185.48,185.46a139.22,139.22,0,0,1,23.78,24.12,58.3,58.3,0,0,1,8.66,15.29c1.77,4.56,2.45,10.06,5.55,14.15,16.64-21.54,36.94-39.62,59.13-55.11,13-9.07,25.9-16.27,39.47-24.16,6.71-3.9,13.17-6.67,20.33-10.56,4.94-2.69,10.6-6.18,16.08-1.78,1,.84,1.3,2.47,1.33,3.88a19.81,19.81,0,0,1-2.69,10.32c2.63-1.82,5.65-4.81,8.31-6.31,4.26-2.4,8.24-1.43,6.62,4.08-2.92,9.92-9,18.27-15.75,26.11,0,.06-.1,0,0,0s.27-.25.41-.35c5.3-3.75,10.54-8.75,17.06-9.54,5.61-.67,1.64,5.84.46,7.69-3.13,4.92-5,9.57-8.62,13.85-7.09,8.34-13.91,16.49-23.4,22.32-15.74,9.69-33,14.77-51,17.86-6.58,1.14-14,.81-20,1.52-16.26,2-35.85,3.34-49.3,12.32-2.2,1.48-2.85,0-4.7-1.43s-4.23-4-6.2-5.63c-4.12-3.35-8.11-7.49-12.85-9.69-9.73-4.51-19.73-7-29.94-9.84-3-.83-6.07-1.18-9.09-2-14.43-4-28.69-6.54-42.18-13.65S94.4,191.49,86.6,178.27c-1.19-2-2.44-6.3-.66-8.28,3.19-3.55,6.48.43,9,2.31a107.31,107.31,0,0,0,14.4,8.68c-6-8.83-10.52-17.69-13.19-28.07-.48-1.84-.49-3.7.91-5.15s3.38-1.24,5-.28,2.71,2.56,3.91,4a92.05,92.05,0,0,0,14.76,14.77c.64.51,1.37.86,2,1.31a26.37,26.37,0,0,1-2.13-16.4,4,4,0,0,1,2.4-3.17c1.36-.55,2.62,0,3.85.59,4.89,2.44,9.55,5.2,14.21,8C156.28,165.82,171.48,174.59,185.48,185.46Z"/><path class="cls-5" d="M185.52,185.51a138.64,138.64,0,0,1,24.55,25.19c3.7,4.8,6.06,9.66,8.8,16.36.91,2.23,4.43,10.33,3.33,13.87,21.44-24.72,45.72-47.87,72.89-66.19,6.65-4.48,13.48-8,20.34-11.73,10.75-5.94,21.41-11.55,32.21-17.3,2.1-1.12,4.37-2.43,6.78-1.94,3.74.77,5,4,5.32,7.36.38,4-1,7-2.6,10.5,2.6-1.86,5.63-4.83,8.29-6.33,4.26-2.4,8.24-1.43,6.62,4.08-2.92,9.92-9,18.27-15.75,26.11,0,.06-.1,0,0,0s.27-.25.41-.35c5.3-3.75,10.54-8.75,17.06-9.54,5.61-.67,1.64,5.84.46,7.69-3.13,4.92-5,9.57-8.62,13.85-7.09,8.34-13.91,16.49-23.4,22.32-15.74,9.69-33,14.77-51,17.86-6.58,1.14-14,.81-20,1.52-16.26,2-35.85,3.34-49.3,12.32-2.2,1.48-2.85,0-4.7-1.43s-4.23-4-6.2-5.63c-4.12-3.35-8.11-7.49-12.85-9.69-9.73-4.51-19.73-7-29.94-9.84-3-.83-6.07-1.18-9.09-2-14.43-4-28.69-6.54-42.18-13.65S94.4,191.49,86.6,178.27c-1.19-2-2.44-6.3-.66-8.28,3.19-3.55,6.48.43,9,2.31a107.31,107.31,0,0,0,14.4,8.68c-6-8.83-10.52-17.69-13.19-28.07-.48-1.84-.49-3.7.91-5.15s3.38-1.24,5-.28,2.71,2.56,3.91,4a92.05,92.05,0,0,0,14.76,14.77c.64.51,1.37.86,2,1.31a26.37,26.37,0,0,1-2.13-16.4,4,4,0,0,1,2.4-3.17c1.36-.55,2.62,0,3.85.59,4.89,2.46,9.55,5.18,14.22,8C156.3,165.9,171.47,174.5,185.52,185.51Z"/><path class="cls-12" d="M275.32,196.08q3.71-2.94,7.42-5.74c20.12-15.1,41.09-28.38,64.65-37.4a14.73,14.73,0,0,1,6-1.24,5.46,5.46,0,0,1,4.77,3.13c.15-3.32-.09-7.65-2.78-9.94s-5-.6-7.78.85c-10.69,5.65-21.47,11.39-32.17,17.26-6.82,3.75-13.75,7.33-20.33,11.73-7.92,5.3-15.33,11.59-23.12,17.21-6.35,4.57-12.53,8.9-18.2,14.48s-11,12-16.46,17.92c-2.65,2.92-5.4,5.8-8.21,8.63-1.85,1.86-3.41,4.16-5.36,6C240.93,224.64,257.83,210,275.32,196.08Z"/><path class="cls-12" d="M96.7,155.69c1.72,4.44,4.32,8.38,6.38,12.64A33.27,33.27,0,0,1,100.65,152c.38,2.7,5.64,6.27,7.15,7.49a59.41,59.41,0,0,0,10,6.89,63.53,63.53,0,0,0,22.57,6.88c-2.59-.7-3.63-3.35-5-5.28-2.29-3.22-4-5.94-4.74-9.79,13.23,9.78,28.48,16.69,42.29,25.39,18.64,11.75,36.65,26.68,46.3,46.78-1-2.41-1-5-1.91-7.46-1.69-4.52-4.67-8.23-7.23-12.3-7.36-9.18-15.23-17.85-24.54-25.07-14-10.87-29.22-19.66-44.33-28.83-4.67-2.83-9.33-5.59-14.22-8-1.23-.62-2.49-1.14-3.85-.59a4,4,0,0,0-2.4,3.17,26.37,26.37,0,0,0,2.13,16.4c-.67-.44-1.4-.81-2-1.31A93.59,93.59,0,0,1,106,151.54c-1.2-1.46-2.23-3.27-3.9-4-5.27-2.32-6.68,2.29-5.88,6.73A7.75,7.75,0,0,0,96.7,155.69Z"/><g class="cls-17"><path class="cls-5" d="M176.71,212.11a47.32,47.32,0,0,1,8.76,2.27c7.48,2.77,14.84,6.11,21.06,11.17a61.36,61.36,0,0,1,7.77,7.69A36,36,0,0,1,218,238c.34.58,3.68,6.22,3.32,6.52A94.18,94.18,0,0,1,249.21,229c21.13-7.41,44-4.53,65.43-10.25,8.32-2.21,14.71-5.82,22.43-11.1,3.58-2.45,13.29-8.64,13.63-14.31a95.79,95.79,0,0,0-18.39,6.29,90.27,90.27,0,0,0,27.92-26.13,37.3,37.3,0,0,0,6.06-14.16c-6,2.12-11.18,5.55-16.69,8.62-2.82,1.56-5.5,3.3-8.28,4.91-2.46,1.42-5.2,2.22-7.69,3.6a73,73,0,0,0,25.16-26.66,19.14,19.14,0,0,1-1.66,11.79c2.62-1.85,5.64-4.83,8.3-6.33,4.26-2.4,8.24-1.43,6.62,4.08-2.92,9.92-9,18.27-15.75,26.11,0,.06-.1,0,0,0s.27-.25.41-.35c5.3-3.75,10.54-8.75,17.06-9.54,5.61-.67,1.64,5.84.46,7.69-3.13,4.92-5,9.57-8.62,13.85-7.09,8.34-13.91,16.49-23.4,22.32-15.74,9.69-33,14.77-51,17.86-6.58,1.14-14,.81-20,1.52-16.26,2-35.85,3.34-49.3,12.32-2.2,1.48-2.85,0-4.7-1.43s-4.23-4-6.2-5.63c-4.12-3.35-8.11-7.49-12.85-9.69-9.73-4.51-19.73-7-29.94-9.84-3-.83-6.07-1.18-9.09-2-14.43-4-28.69-6.54-42.18-13.65S94.4,191.49,86.6,178.27c-1.19-2-2.44-6.3-.66-8.28,3.19-3.55,6.47.43,9,2.31a107.31,107.31,0,0,0,14.4,8.68,87.49,87.49,0,0,1-9.69-17.06c-2.17-5.25-4.09-9.6-3.22-15.36A122.09,122.09,0,0,0,115,175.43a41.68,41.68,0,0,0,15.28,11c-5.42-1.7-10.93-2.25-16.42-3.89a71.18,71.18,0,0,1-16.52-7.88c-2.78-1.72-5.25-3.44-8.44-4.21a1.11,1.11,0,0,0-1,.15,1,1,0,0,0-.25.94c.82,5,5.32,8.88,8.6,12a85.68,85.68,0,0,0,12.16,10.3c7.27,4.82,14.43,8.86,22.82,11.4C146,209.73,161.39,209.29,176.71,212.11Z"/></g><path class="cls-3" d="M127.77,186.68a56.84,56.84,0,0,1-13.1-2.84,86.88,86.88,0,0,1-12.29-5.45c-2-1.06-3.94-2.17-5.84-3.36-.48-.28-1-.6-1.42-.9s-.93-.58-1.46-1c-1-.72-1.78-1.44-2.61-2a5.08,5.08,0,0,0-2.24-1.06,2,2,0,0,0-1.63.84,2.23,2.23,0,0,0-.45.85,5.09,5.09,0,0,0-.15,1.22,9.25,9.25,0,0,0,.51,2.75,9.46,9.46,0,0,0,.56,1.29c.19.34.53.84.82,1.3l1.83,2.75c1.21,1.84,2.46,3.64,3.73,5.42a81.65,81.65,0,0,0,8.35,10,56.35,56.35,0,0,0,10.1,8c.91.57,1.86,1.08,2.79,1.62l2.88,1.48c2,.94,4,1.86,6,2.72a150,150,0,0,0,25,8c8.56,2.11,17.22,4,25.82,6.38a95.66,95.66,0,0,1,24.89,10.3c7.73,4.75,14.5,10.75,20.84,17l-2.33-.16a47.51,47.51,0,0,1,13.24-7A80,80,0,0,1,246,241.26c9.7-1.51,19.37-1.94,28.84-3.39s19-3.1,28.34-5.45a153.65,153.65,0,0,0,27.13-9.35,83.91,83.91,0,0,0,12.41-7,101.48,101.48,0,0,0,11.16-9c3.53-3.22,7-6.64,10.27-10.09a57.52,57.52,0,0,0,8.53-11.25,16.48,16.48,0,0,0,2.12-6.28,6.06,6.06,0,0,0-.44-2.9l-.16-.32a1.22,1.22,0,0,0-.11-.21.77.77,0,0,0,.31.19c.24.07.36,0,.3,0l-.34.11-.41.15c-.28.1-.56.18-.83.29a53.77,53.77,0,0,0-12.31,6.92c-2,1.36-3.9,2.84-6,4.17s-4.14,2.6-6.28,3.77a141.39,141.39,0,0,1-13.11,6.36c4-2.78,8.1-5.35,12.11-8,2-1.35,4-2.68,5.93-4.09l5.81-4.3a55,55,0,0,1,12.88-7.33l.88-.32.45-.15c.15-.05.27-.1.52-.17a2.14,2.14,0,0,1,1.19,0,2.09,2.09,0,0,1,1,.74,3.75,3.75,0,0,1,.34.57l.25.5a8.62,8.62,0,0,1,.68,4.18,18.93,18.93,0,0,1-2.4,7.4A60.14,60.14,0,0,1,366.2,199c-3.37,3.55-6.78,7-10.38,10.3a107.41,107.41,0,0,1-11.43,9.25,86.77,86.77,0,0,1-12.81,7.29,156.76,156.76,0,0,1-27.64,9.67c-9.44,2.43-19,4.17-28.62,5.65s-19.37,2-28.79,3.51A77.59,77.59,0,0,0,232.76,248a44.88,44.88,0,0,0-12.27,6.56l-1.23.94-1.1-1.1c-6.22-6.16-12.79-12-20.16-16.53A92.08,92.08,0,0,0,174,228c-8.45-2.36-17.09-4.25-25.71-6.38a149.72,149.72,0,0,1-25.49-8.24c-2.06-.89-4.08-1.84-6.09-2.81l-3-1.57c-1-.58-2-1.11-2.94-1.73a59.61,59.61,0,0,1-10.64-8.48,82.76,82.76,0,0,1-8.63-10.41c-1.3-1.82-2.56-3.67-3.78-5.53L85.88,180c-.3-.47-.6-.88-.94-1.51a11.27,11.27,0,0,1-.76-1.76,11.85,11.85,0,0,1-.66-3.74,8,8,0,0,1,.27-2.07,5.27,5.27,0,0,1,1.12-2,6.13,6.13,0,0,1,1.75-1.37,4.55,4.55,0,0,1,2.41-.46,8,8,0,0,1,3.74,1.64c1,.7,1.82,1.45,2.62,2.05.36.27.86.58,1.31.87s.91.6,1.38.88c1.84,1.17,3.73,2.25,5.65,3.29s3.87,2,5.85,2.91,4,1.75,6,2.61C119.65,183,123.73,184.68,127.77,186.68Z"/><path class="cls-3" d="M355.75,184.93c4.19-5.4,8.28-10.85,11.35-16.82.78-1.49,1.45-3,2.1-4.56s1.28-3.1,1.82-4.65.54-3.11-.34-3.68a2.58,2.58,0,0,0-1.83-.26,6.73,6.73,0,0,0-2.12.78,30.64,30.64,0,0,0-4,2.94q-1.94,1.62-3.86,3.32a64.94,64.94,0,0,1-8.31,6.29,85.25,85.25,0,0,1-18.92,8.41,184.66,184.66,0,0,0,17.6-10.41c2.73-1.93,5.26-4.18,8-6.29a67.71,67.71,0,0,1,8.65-5.95,9.41,9.41,0,0,1,2.71-.91,4.47,4.47,0,0,1,3.14.53,3.42,3.42,0,0,1,1.18,1.3,4.71,4.71,0,0,1,.47,1.57,8.26,8.26,0,0,1-.2,2.92,37.58,37.58,0,0,1-1.53,5.07,43.26,43.26,0,0,1-2.25,4.77,63.85,63.85,0,0,1-5.68,8.77A97.65,97.65,0,0,1,357,186Z"/><path class="cls-3" d="M108.53,182a89.05,89.05,0,0,1-11-19.92c-.69-1.77-1.31-3.58-1.87-5.4-.28-.92-.55-1.83-.79-2.75a10.75,10.75,0,0,1-.51-3.18,5.43,5.43,0,0,1,4.53-5.48,6.29,6.29,0,0,1,3.54.71,8.64,8.64,0,0,1,2.63,2.06c4.83,5.85,9.37,11.73,15.13,16.21s12.92,6.8,20.2,8.61A58.41,58.41,0,0,1,129.23,171a36.82,36.82,0,0,1-5.39-2,34.59,34.59,0,0,1-5-2.9,54.18,54.18,0,0,1-8.53-7.66c-1.29-1.39-2.53-2.81-3.77-4.21l-1.87-2.14c-.64-.76-1.19-1.5-1.75-2.11a5.76,5.76,0,0,0-1.77-1.37,3.44,3.44,0,0,0-1.89-.4,2,2,0,0,0-1.32.84,3,3,0,0,0-.55,1.74,6.08,6.08,0,0,0,.1,1.1c.07.38.18.79.31,1.25.23.89.48,1.77.75,2.65.54,1.75,1.12,3.5,1.79,5.21a92.38,92.38,0,0,0,4.59,10c1.73,3.26,3.68,6.4,5.7,9.51Z"/><path class="cls-3" d="M122.35,167.92a24.8,24.8,0,0,1-3.3-9.9,22.54,22.54,0,0,1,.06-5.32c0-.44.11-.88.18-1.31a7.28,7.28,0,0,1,.35-1.46,5.21,5.21,0,0,1,2-2.67,5,5,0,0,1,1.6-.71,4.48,4.48,0,0,1,1.78-.07,9.57,9.57,0,0,1,2.78,1q2.3,1.15,4.54,2.38c3,1.64,5.91,3.37,8.81,5.11,11.57,7,23.26,13.83,34.46,21.53a182.29,182.29,0,0,1,16.24,12.39,142.19,142.19,0,0,1,14.35,14.59c1.11,1.29,2.19,2.6,3.26,3.92s2.15,2.67,3.13,4.11a54.77,54.77,0,0,1,5,9.08c.7,1.59,1.33,3.17,1.91,4.81s1,3.3,1.47,5c.86,3.3,1.57,6.6,2.54,9.76l-2.19-.46A434.88,434.88,0,0,1,253.11,206a251.1,251.1,0,0,1,36.37-28.67c13-8.37,26.74-15.44,40.23-22.78l5.06-2.77c.84-.47,1.7-.91,2.45-1.39s1.57-1,2.37-1.57c1.59-1.08,3.22-2.18,5-3.15a22.19,22.19,0,0,1,5.61-2.33,10.66,10.66,0,0,1,3.21-.3,7.71,7.71,0,0,1,3.22.93,8.53,8.53,0,0,1,2.53,2.17,7.37,7.37,0,0,1,1.37,3.08,14.48,14.48,0,0,1-.44,6.16c-.45,1.91-1.09,3.73-1.42,5.52l-1.62-.21c.2-2,.71-3.9,1.06-5.74a13.63,13.63,0,0,0,.24-5.28,5.09,5.09,0,0,0-1-2.13,6,6,0,0,0-6.62-1.93,19.9,19.9,0,0,0-5,2.11c-1.62.91-3.19,2-4.78,3-.79.54-1.58,1.09-2.43,1.63s-1.73,1-2.56,1.46l-5.06,2.79c-13.51,7.38-27.16,14.47-40,22.78a252.12,252.12,0,0,0-36,28.41,434,434,0,0,0-31.55,33.47l-1.51,1.76-.68-2.21c-1-3.31-1.74-6.63-2.59-9.86-.44-1.61-.89-3.2-1.44-4.75s-1.18-3.1-1.85-4.61a52.61,52.61,0,0,0-4.81-8.62c-.93-1.35-2-2.62-3-3.94s-2.14-2.58-3.24-3.85A139.68,139.68,0,0,0,190,191a183.59,183.59,0,0,0-16-12.13c-11.09-7.61-22.77-14.39-34.31-21.45-2.88-1.76-5.76-3.48-8.69-5.1-1.47-.82-2.94-1.6-4.43-2.35a6.78,6.78,0,0,0-1.95-.77,2,2,0,0,0-1.44.33,2.58,2.58,0,0,0-1,1.31,5.24,5.24,0,0,0-.23,1c-.08.4-.15.8-.2,1.2a27.43,27.43,0,0,0-.25,4.79,35,35,0,0,0,1.91,9.59Z"/></g><path class="cls-18" d="M215.35,348c11.42,33.79,27.06,66.36,48.72,94.5s51.69,49.13,84.08,63.12c21.91-9.68,40-26.68,55.16-45.45a272.31,272.31,0,0,0,57-130.33c-40.12-10.61-82.85-16.53-127.34-24.35C288.45,319.59,248.11,331.4,215.35,348Z"/><path class="cls-19" d="M353.66,493a103.49,103.49,0,0,0,27-17.1c8-7,13.33-15.18,19.72-23.39a254.67,254.67,0,0,0,34.12-58.78,261,261,0,0,0,11.05-32.45c2.25-8.38,1.78-17.69,4.49-25.95-9.6,29.29-31.63,54.21-54.53,73.07-13.72,11.28-27,21-45,23.3.31,0,1.74,35.21,1.86,38C352.67,477.19,352,485.75,353.66,493Z"/><path class="cls-20" d="M330.81,317.4,348,492.79l-.23.11c-28.31-12.22-56.7-31.62-75.62-56.22s-32.6-53.06-42.57-82.6C257.82,339.76,292.54,329.51,330.81,317.4Z"/><path class="cls-21" d="M299.64,385.28Q277.08,373.46,254.31,362q-10.16-5.1-20.37-10.06c17.27-8.32,36.78-15.31,57.93-22.2q10.94,5.44,21.93,10.8l20.25,9.88,5.48,56Q319.63,395.79,299.64,385.28Z"/><path class="cls-21" d="M337.74,456.61c-10.62-4.77-21.17-9.69-31.71-14.65s-21-9.93-31.52-14.85q-6.7-3.14-13.45-6.21a283.05,283.05,0,0,1-24.3-47.42c10.05,4.66,20,9.51,29.93,14.47,11,5.51,21.92,11.14,32.84,16.79s22,11.38,33,17l9,4.51,3.28,33.5Z"/><path class="cls-3" d="M216.63,348.53a49.85,49.85,0,0,1,2.2,5.32l2.28,6.23,2.37,6.19,2.49,6.15Q231,384.67,237,396.53a283.85,283.85,0,0,0,28,44.89,188.44,188.44,0,0,0,37.81,36.7,232.85,232.85,0,0,0,45.89,26.13h-1.2c16.28-7.19,30.49-18.52,42.78-31.43q4.59-4.87,8.92-10c2.89-3.42,5.59-7,8.35-10.51q8-10.79,15.05-22.24t12.76-23.63q5.72-12.17,10.36-24.78T453.63,356q3.22-13.05,5.28-26.34l1,1.53h0c-20.82-5.61-42-9.88-63.24-13.75s-42.59-7.35-63.87-11.2l.35,0h0c-19.85,6.41-39.78,12.6-59.48,19.39-9.84,3.4-19.63,7-29.29,10.83q-7.24,2.9-14.35,6.09c-2.39,1-4.72,2.18-7.07,3.27l-.87.41-.76.37c-.51.25-1,.48-1.53.7C218.78,347.7,217.73,348.11,216.63,348.53Zm-2.54-1c1.24-.73,2.53-1.47,3.85-2.18.65-.35,1.32-.69,2-1l1-.49.9-.41c2.39-1.07,4.75-2.21,7.16-3.23q7.2-3.13,14.51-6c9.75-3.8,19.6-7.26,29.51-10.57,19.81-6.6,39.8-12.59,59.71-18.8h0l.17-.05.18,0c21.29,3.63,42.66,6.9,64,10.57s42.59,7.74,63.58,13.17h0l1.19.31-.19,1.21q-2,13.43-5.29,26.62t-7.92,25.95q-4.68,12.75-10.44,25.05-5.91,12.22-12.86,23.89t-15.19,22.5c-2.78,3.57-5.52,7.18-8.43,10.64s-5.93,6.86-9,10.16-6.37,6.46-9.73,9.52-6.87,5.94-10.5,8.69-7.42,5.28-11.32,7.64a128,128,0,0,1-12.14,6.3h0l-.58.27-.62-.26a236.28,236.28,0,0,1-46.44-26.53,191.21,191.21,0,0,1-38.34-37.31,286.6,286.6,0,0,1-28.25-45.38q-6-11.93-11.11-24.31l-2.5-6.2L218.53,361l-2.29-6.28C215.41,352.38,214.69,349.87,214.09,347.49Z"/><path class="cls-4" d="M245,361.67a.31.31,0,0,1,.57,0c1.27,3.71,3.11,7.31,4.73,10.89,1.76,3.88,3.64,7.69,5.47,11.54q2.52,5.32,5,10.66c.77,1.64,1.27,3.3,2,4.95a41.45,41.45,0,0,1,2.05,4.8,1.16,1.16,0,0,1-1.92,1.25,29.12,29.12,0,0,1-3.57-4.34c-1.06-1.5-2.27-2.77-3.26-4.32a82.35,82.35,0,0,1-5.75-10.87,93.57,93.57,0,0,1-4.4-12.43,46.52,46.52,0,0,1-1.42-6.42A13.3,13.3,0,0,1,245,361.67Z"/><path class="cls-4" d="M266,411.31a1.94,1.94,0,0,1,3.26-.76,16.64,16.64,0,0,1,1.87,3c.32.6.72,1.31,1.06,2,.17.33.36.65.52,1,.24.51.35,1.07.59,1.59l.42.85a3.48,3.48,0,0,1,.42,1.7,17,17,0,0,1,.57,1.7c.18.66.44,1.64-.43,1.93-.59.2-1.39-.3-1.85-.57a6.73,6.73,0,0,1-.88-.63,10.56,10.56,0,0,1-1.84-1.34c-.22-.25-.42-.52-.62-.79s-.41-.54-.6-.82a.72.72,0,0,0-.11-.12,3.31,3.31,0,0,1-.59-.8,14.14,14.14,0,0,1-.73-1.52A11.43,11.43,0,0,1,266,411.31Z"/></g></g></svg>